<svg width="72" height="72" viewBox="0 0 72 72" fill="none" xmlns="http://www.w3.org/2000/svg">
<path d="M56.9925 52.0484H14.0075L13.6716 51.7126V19.4738L14.0075 19.1379H56.9925L57.3283 19.4738V51.7126L56.9925 52.0484ZM14.3433 51.3767H56.6567V19.8096H14.3433V51.3767Z" fill="#F7DCBF"/>
<path d="M22.9067 53.8619H17.7015L17.3657 53.5261V51.7462L17.7015 51.4104H22.9067L23.2425 51.7462V53.5261L22.9067 53.8619ZM18.0373 53.1903H22.5709V52.082H18.0373V53.1903Z" fill="#F7DCBF"/>
<path d="M53.2985 53.8619H48.0933L47.7574 53.5261V51.7462L48.0933 51.4104H53.2985L53.6343 51.7462V53.5261L53.2985 53.8619ZM48.4291 53.1903H52.9627V52.082H48.4291V53.1903Z" fill="#F7DCBF"/>
<path d="M15.4851 22.7648C14.4776 22.7648 13.6716 21.9588 13.6716 20.9514C13.6716 19.9439 14.4776 19.1379 15.4851 19.1379C16.4925 19.1379 17.2985 19.9439 17.2985 20.9514C17.2985 21.9588 16.4589 22.7648 15.4851 22.7648ZM15.4851 19.8096C14.847 19.8096 14.3433 20.3133 14.3433 20.9514C14.3433 21.5894 14.847 22.0932 15.4851 22.0932C16.1231 22.0932 16.6269 21.5894 16.6269 20.9514C16.6269 20.3133 16.0895 19.8096 15.4851 19.8096Z" fill="#F7DCBF"/>
<path d="M55.5149 22.7648C54.5074 22.7648 53.7015 21.9588 53.7015 20.9514C53.7015 19.9439 54.5074 19.1379 55.5149 19.1379C56.5224 19.1379 57.3283 19.9439 57.3283 20.9514C57.3283 21.9588 56.5224 22.7648 55.5149 22.7648ZM55.5149 19.8096C54.8768 19.8096 54.3731 20.3133 54.3731 20.9514C54.3731 21.5894 54.8768 22.0932 55.5149 22.0932C56.153 22.0932 56.6567 21.5894 56.6567 20.9514C56.6567 20.3133 56.153 19.8096 55.5149 19.8096Z" fill="#F7DCBF"/>
<path d="M15.4851 52.0483C14.4776 52.0483 13.6716 51.2423 13.6716 50.2348C13.6716 49.2274 14.4776 48.4214 15.4851 48.4214C16.4925 48.4214 17.2985 49.2274 17.2985 50.2348C17.2985 51.2423 16.4589 52.0483 15.4851 52.0483ZM15.4851 49.1266C14.847 49.1266 14.3433 49.6303 14.3433 50.2684C14.3433 50.9065 14.847 51.4102 15.4851 51.4102C16.1231 51.4102 16.6269 50.9065 16.6269 50.2684C16.6269 49.6303 16.0895 49.1266 15.4851 49.1266Z" fill="#F7DCBF"/>
<path d="M55.5149 52.0483C54.5074 52.0483 53.7015 51.2423 53.7015 50.2348C53.7015 49.2274 54.5074 48.4214 55.5149 48.4214C56.5224 48.4214 57.3283 49.2274 57.3283 50.2348C57.3283 51.2423 56.5224 52.0483 55.5149 52.0483ZM55.5149 49.1266C54.8768 49.1266 54.3731 49.6303 54.3731 50.2684C54.3731 50.9065 54.8768 51.4102 55.5149 51.4102C56.153 51.4102 56.6567 50.9065 56.6567 50.2684C56.6567 49.6303 56.153 49.1266 55.5149 49.1266Z" fill="#F7DCBF"/>
<path d="M56.9925 27.2985H40.0671C39.8657 27.2985 39.7313 27.1642 39.7313 26.9627C39.7313 26.7612 39.8657 26.6269 40.0671 26.6269H56.6567V24.6455H40.0671C39.8657 24.6455 39.7313 24.5112 39.7313 24.3097C39.7313 24.1082 39.8657 23.9739 40.0671 23.9739H56.9925C57.194 23.9739 57.3283 24.1082 57.3283 24.3097V26.9627C57.3283 27.1306 57.194 27.2985 56.9925 27.2985Z" fill="#F7DCBF"/>
<path d="M31.3358 27.2985H14.0075C13.806 27.2985 13.6716 27.1642 13.6716 26.9627V24.3097C13.6716 24.1082 13.806 23.9739 14.0075 23.9739H31.3358C31.5373 23.9739 31.6716 24.1082 31.6716 24.3097C31.6716 24.5112 31.5373 24.6455 31.3358 24.6455H14.3433V26.6269H31.3358C31.5373 26.6269 31.6716 26.7612 31.6716 26.9627C31.6716 27.1642 31.5373 27.2985 31.3358 27.2985Z" fill="#F7DCBF"/>
<path d="M40.0672 33.2088H31.3358C31.1343 33.2088 31 33.0745 31 32.873V23.1342C31 22.5633 31.4366 22.1267 32.0074 22.1267H39.3955C39.9664 22.1267 40.403 22.5633 40.403 23.1342V32.873C40.403 33.0745 40.2686 33.2088 40.0672 33.2088ZM31.6716 32.5372H39.7313V23.1342C39.7313 22.9327 39.597 22.7984 39.3955 22.7984H32.0074C31.806 22.7984 31.6716 22.9327 31.6716 23.1342V32.5372Z" fill="#F7DCBF"/>
<path d="M37.7164 36.0969H33.6866C33.5858 36.0969 33.5186 36.0633 33.4515 35.9962L32.4104 34.9551C32.3433 34.888 32.3097 34.8208 32.3097 34.7201V32.9066C32.3097 32.7051 32.444 32.5708 32.6455 32.5708H38.791C38.9925 32.5708 39.1269 32.7051 39.1269 32.9066V34.7201C39.1269 34.8208 39.0933 34.888 39.0261 34.9551L37.9851 35.9962C37.9179 36.0633 37.8172 36.0969 37.7164 36.0969ZM33.8209 35.4253H37.5821L38.4216 34.5857V33.2424H32.9478V34.5857L33.8209 35.4253Z" fill="#F7DCBF"/>
<path d="M35.7015 39.6902C35.5 39.6902 35.3657 39.5559 35.3657 39.3544V35.7611C35.3657 35.5596 35.5 35.4253 35.7015 35.4253C35.903 35.4253 36.0373 35.5596 36.0373 35.7611V39.3544C36.0373 39.5559 35.903 39.6902 35.7015 39.6902Z" fill="#F7DCBF"/>
<path d="M38.9254 22.7985H32.5112C32.3097 22.7985 32.1754 22.6642 32.1754 22.4627V21.153C32.1754 20.5821 32.6119 20.1455 33.1828 20.1455H38.2537C38.8246 20.1455 39.2612 20.5821 39.2612 21.153V22.4627C39.2612 22.6642 39.1268 22.7985 38.9254 22.7985ZM32.847 22.1269H38.5895V21.153C38.5895 20.9515 38.4552 20.8171 38.2537 20.8171H33.1828C32.9813 20.8171 32.847 20.9515 32.847 21.153V22.1269Z" fill="#F7DCBF"/>
<path d="M35.7015 30.2537C34.291 30.2537 33.1157 29.0783 33.1157 27.6679C33.1157 26.2574 34.291 25.082 35.7015 25.082C37.1119 25.082 38.2873 26.2574 38.2873 27.6679C38.2873 29.0783 37.1455 30.2537 35.7015 30.2537ZM35.7015 25.7537C34.6604 25.7537 33.7873 26.6268 33.7873 27.6679C33.7873 28.7089 34.6604 29.582 35.7015 29.582C36.7425 29.582 37.6157 28.7089 37.6157 27.6679C37.6157 26.6268 36.7761 25.7537 35.7015 25.7537Z" fill="#F7DCBF"/>
<path d="M50.7127 50.0001H20.2873C20.1866 50.0001 20.1194 49.9666 20.0522 49.8994L18.7425 48.5897C18.6418 48.4889 18.6082 48.3546 18.6754 48.2203C18.7425 48.086 18.8433 48.0188 18.9776 48.0188H52.0224C52.1567 48.0188 52.291 48.086 52.3246 48.2203C52.3918 48.3546 52.3582 48.4889 52.2575 48.5897L50.9478 49.8994C50.8806 49.9666 50.7799 50.0001 50.7127 50.0001ZM20.4216 49.3285H50.5448L51.1828 48.6904H19.7836L20.4216 49.3285Z" fill="#F7DCBF"/>
<path d="M45.0709 47.011H25.9291C25.8619 47.011 25.7948 46.9775 25.7276 46.9439L23.0746 44.9289C22.9739 44.8282 22.9067 44.6939 22.9739 44.5595C23.0075 44.4252 23.1418 44.3245 23.2761 44.3245H47.7239C47.8582 44.3245 47.9925 44.4252 48.0261 44.5595C48.0597 44.6939 48.0261 44.8618 47.9254 44.9289L45.2724 46.9103C45.2052 46.9775 45.1381 47.011 45.0709 47.011ZM26.0298 46.3394H44.9366L46.7164 45.0297H24.2836L26.0298 46.3394Z" fill="#F7DCBF"/>
<path d="M49.1007 43.3173H21.8992C21.8321 43.3173 21.7649 43.2837 21.6977 43.2501L19.0448 41.2688C18.944 41.168 18.8768 41.0337 18.944 40.8994C18.9776 40.7651 19.1119 40.6643 19.2463 40.6643H51.7873C51.9216 40.6643 52.056 40.7651 52.0895 40.8994C52.1231 41.0337 52.0895 41.2016 51.9888 41.2688L49.3358 43.2501C49.2686 43.2837 49.2015 43.3173 49.1007 43.3173ZM22 42.6457H49L50.7798 41.3359H20.2201L22 42.6457Z" fill="#F7DCBF"/>
<path d="M43.8283 52.0483H26.9701C26.7686 52.0483 26.6343 51.914 26.6343 51.7125V49.6639C26.6343 49.4625 26.7686 49.3281 26.9701 49.3281H43.7948C43.9962 49.3281 44.1306 49.4625 44.1306 49.6639V51.7125C44.1642 51.914 43.9963 52.0483 43.8283 52.0483ZM27.3059 51.3766H43.4589V49.9998H27.3059V51.3766Z" fill="#F7DCBF"/>
</svg>
