<svg width="96" height="96" viewBox="0 0 96 96" fill="none" xmlns="http://www.w3.org/2000/svg">
<path d="M31.435 83.6117C32.4668 83.6117 33.3033 82.7752 33.3033 81.7433C33.3033 80.7115 32.4668 79.875 31.435 79.875C30.4031 79.875 29.5667 80.7115 29.5667 81.7433C29.5667 82.7752 30.4031 83.6117 31.435 83.6117Z" fill="#F7DCBF"/>
<path d="M15.005 31.1768L14.1783 32.8501L12.3325 33.1184L13.6692 34.4209L13.3533 36.2601L15.005 35.3918L16.6567 36.2601L16.3417 34.4209L17.6775 33.1184L15.83 32.8501L15.005 31.1768Z" fill="#F7DCBF"/>
<path d="M30.3467 17.1918L31.4883 16.5926L32.6275 17.1918L32.41 15.9218L33.3317 15.0226L32.0575 14.8376L31.4883 13.6826L30.9175 14.8376L29.6425 15.0226L30.565 15.9218L30.3467 17.1918Z" fill="#F7DCBF"/>
<path d="M78.6392 64.7227L79.5608 65.6218L79.3433 66.891L80.4833 66.2918L81.6242 66.891L81.4067 65.6218L82.3283 64.7227L81.0533 64.5368L80.4833 63.3818L79.9142 64.5368L78.6392 64.7227Z" fill="#F7DCBF"/>
<path d="M80.4833 19.7793L79.7317 22.0935H77.2983L79.2667 23.5243L78.515 25.8376L80.4833 24.4076L82.4517 25.8376L81.7 23.5243L83.6683 22.0935H81.2358L80.4833 19.7793Z" fill="#F7DCBF"/>
<path d="M73.8533 16.1258C74.8852 16.1258 75.7217 15.2893 75.7217 14.2575C75.7217 13.2256 74.8852 12.3892 73.8533 12.3892C72.8215 12.3892 71.985 13.2256 71.985 14.2575C71.985 15.2893 72.8215 16.1258 73.8533 16.1258Z" fill="#F7DCBF"/>
<path d="M81.7642 50.3102C82.5861 50.3102 83.2525 49.6438 83.2525 48.8218C83.2525 47.9998 82.5861 47.3335 81.7642 47.3335C80.9422 47.3335 80.2758 47.9998 80.2758 48.8218C80.2758 49.6438 80.9422 50.3102 81.7642 50.3102Z" fill="#F7DCBF"/>
<path d="M20.3767 24.2631C21.4633 24.2631 22.3442 23.3822 22.3442 22.2956C22.3442 21.209 21.4633 20.3281 20.3767 20.3281C19.29 20.3281 18.4092 21.209 18.4092 22.2956C18.4092 23.3822 19.29 24.2631 20.3767 24.2631Z" fill="#F7DCBF"/>
<path d="M27.1358 81.5392C26.8658 81.4851 26.5975 81.4242 26.3325 81.3584L26.2308 81.7617C26.5025 81.8309 26.7767 81.8917 27.0542 81.9476L27.1358 81.5392Z" fill="#F7DCBF"/>
<path d="M13.6317 67.8416C13.7125 68.3858 13.8217 68.9324 13.9558 69.4666L14.3592 69.3649C14.2292 68.8441 14.1225 68.3108 14.0433 67.7808L13.6317 67.8416Z" fill="#F7DCBF"/>
<path d="M23.1117 80.6433C23.6092 80.8791 24.125 81.0933 24.6442 81.2791L24.7842 80.8866C24.2783 80.7058 23.7758 80.4966 23.29 80.2666L23.1117 80.6433Z" fill="#F7DCBF"/>
<path d="M13.4492 65.3765C13.4492 65.6498 13.4558 65.9223 13.4692 66.1931L13.885 66.1731C13.8717 65.909 13.8658 65.6431 13.8658 65.3765C13.8658 65.104 13.8733 64.8306 13.8867 64.5556L13.47 64.5356C13.4567 64.8165 13.4492 65.0973 13.4492 65.3765Z" fill="#F7DCBF"/>
<path d="M19.2725 77.5736C18.8733 77.2111 18.49 76.8261 18.1317 76.4277L17.8225 76.7069C18.19 77.1152 18.5842 77.5102 18.9917 77.8819L19.2725 77.5736Z" fill="#F7DCBF"/>
<path d="M15.4483 72.405C15.2183 71.9175 15.01 71.415 14.83 70.9116L14.4375 71.0525C14.6208 71.5683 14.835 72.0833 15.0717 72.5833L15.4483 72.405Z" fill="#F7DCBF"/>
<path d="M16.21 73.8311L15.8533 74.0452C16.1358 74.5177 16.4458 74.9819 16.7733 75.4244L17.1083 75.1769C16.7883 74.7444 16.4867 74.2919 16.21 73.8311Z" fill="#F7DCBF"/>
<path d="M21.8642 79.5024C21.405 79.2266 20.9525 78.9232 20.5217 78.6016L20.2725 78.9357C20.715 79.2657 21.1792 79.5766 21.6492 79.8591L21.8642 79.5024Z" fill="#F7DCBF"/>
<path d="M13.6367 62.8741L14.0483 62.935C14.0883 62.665 14.1358 62.395 14.19 62.1241L13.7817 62.0425C13.7258 62.32 13.6775 62.5966 13.6367 62.8741Z" fill="#F7DCBF"/>
<path d="M82.6925 71.3423L82.2758 71.334C82.2692 71.609 82.255 71.8815 82.23 72.1515L82.645 72.1898C82.67 71.9098 82.6858 71.6282 82.6925 71.3423Z" fill="#F7DCBF"/>
<path d="M79.7383 78.8861C80.1483 78.4236 80.5242 77.9261 80.8567 77.4086L80.505 77.1836C80.1858 77.6828 79.8233 78.1628 79.4258 78.6086L79.7383 78.8861Z" fill="#F7DCBF"/>
<path d="M78.1367 79.8477C77.6758 80.2252 77.1825 80.5685 76.67 80.8685L76.88 81.2285C77.4125 80.9177 77.9233 80.5618 78.4008 80.1702L78.1367 79.8477Z" fill="#F7DCBF"/>
<path d="M81.3458 75.6068L81.7283 75.7727C81.9742 75.2069 82.1767 74.6168 82.33 74.0193L81.9267 73.916C81.7775 74.4927 81.5825 75.061 81.3458 75.6068Z" fill="#F7DCBF"/>
<path d="M75.0608 81.644C74.505 81.859 73.9292 82.0307 73.3483 82.1549L73.435 82.5624C74.0375 82.434 74.6342 82.2557 75.2108 82.0324L75.0608 81.644Z" fill="#F7DCBF"/>
<path d="M70.7517 82.4002L70.7433 82.8169C70.8242 82.8185 70.9033 82.8194 70.9833 82.8194C71.1867 82.8194 71.39 82.8144 71.5917 82.8035L71.5708 82.3877C71.2992 82.4019 71.0275 82.4077 70.7517 82.4002Z" fill="#F7DCBF"/>
<path d="M81.9725 38.314H81.5558V39.9806H81.9725V38.314Z" fill="#F7DCBF"/>
<path d="M81.9725 31.6475H81.5558V33.3141H81.9725V31.6475Z" fill="#F7DCBF"/>
<path d="M81.9725 41.6475H81.5558V43.3141H81.9725V41.6475Z" fill="#F7DCBF"/>
<path d="M81.9725 34.981H81.5558V36.6476H81.9725V34.981Z" fill="#F7DCBF"/>
<path d="M68.2725 43.3591H67.4533C66.4775 43.3591 65.64 43.94 65.2517 44.7708C63.14 37.485 56.5008 32.11 48.5925 31.9041V28.5916C50.485 28.3466 51.9525 26.7291 51.9525 24.7725C51.9525 22.6466 50.2225 20.9175 48.0958 20.9175C45.97 20.9175 44.2408 22.6466 44.2408 24.7725C44.2408 26.7483 45.735 28.38 47.6533 28.6V31.9041C39.6067 32.1141 32.8717 37.6741 30.885 45.1533C30.6017 44.1233 29.6667 43.3591 28.5467 43.3591H27.7275C26.385 43.3591 25.2925 44.4516 25.2925 45.795V53.6583C25.2925 55.0016 26.385 56.0941 27.7275 56.0941H28.5467C29.6667 56.0941 30.6017 55.33 30.885 54.3C32.1017 58.9241 35.1383 62.895 39.4242 65.2866C36.8383 67.6933 35.3675 71.0558 35.3675 74.615V75.0833H60.8783V74.6141C60.8783 71.055 59.4067 67.6925 56.8208 65.2858C60.985 62.9616 63.9767 59.15 65.2575 54.6941C65.6492 55.5183 66.4825 56.0941 67.4533 56.0941H68.2725C69.615 56.0941 70.7075 55.0016 70.7075 53.6583V45.795C70.7075 44.4516 69.615 43.3591 68.2725 43.3591ZM48.0967 63.0108C50.4867 63.0108 52.4317 61.0658 52.4317 58.675H53.3717C53.3717 61.5841 51.005 63.95 48.0967 63.95C45.1883 63.95 42.8217 61.5841 42.8217 58.675H43.7608C43.7608 61.0658 45.7058 63.0108 48.0967 63.0108ZM37.125 46.6141H36.1858C36.1858 43.705 38.5525 41.3391 41.4608 41.3391C44.3692 41.3391 46.735 43.705 46.735 46.6141H45.7958C45.7958 44.2233 43.8508 42.2783 41.4608 42.2783C39.07 42.2783 37.125 44.2233 37.125 46.6141ZM59.93 74.1441H36.3158C36.3325 73.725 36.3733 73.3091 36.4333 72.8983H59.8142C59.8725 73.3091 59.9142 73.725 59.93 74.1441ZM59.245 70.6175C59.4017 71.055 59.5267 71.5041 59.6308 71.9591H36.615C36.7192 71.5041 36.8433 71.055 37.0008 70.6175H59.245ZM59.9392 46.6141C59.9392 44.2233 57.9942 42.2783 55.6033 42.2783C53.2125 42.2783 51.2675 44.2233 51.2675 46.6141H50.3283C50.3283 43.705 52.695 41.3391 55.6033 41.3391C58.5117 41.3391 60.8783 43.705 60.8783 46.6141H59.9392Z" fill="#F7DCBF"/>
</svg>
