<?xml version="1.0" encoding="UTF-8"?>
<svg width="1200pt" height="1200pt" version="1.1" viewBox="0 0 1200 1200" xmlns="http://www.w3.org/2000/svg">
 <g fill="#7061ee">
  <path d="m379.55 1106.1c0 15.48-12.547 28.027-28.027 28.027-15.477 0-28.023-12.547-28.023-28.027 0-15.477 12.547-28.023 28.023-28.023 15.48 0 28.027 12.547 28.027 28.023"/>
  <path d="m105.07 347.65-12.398 25.102-27.688 4.0234 20.051 19.539-4.7383 27.586 24.773-13.023 24.777 13.023-4.7266-27.586 20.039-19.539-27.715-4.0234z"/>
  <path d="m335.2 137.88 17.125-8.9883 17.09 8.9883-3.2656-19.051 13.828-13.488-19.113-2.7734-8.5391-17.324-8.5625 17.324-19.125 2.7734 13.84 13.488z"/>
  <path d="m1059.6 850.84 13.828 13.488-3.2656 19.039 17.102-8.9883 17.113 8.9883-3.2617-19.039 13.824-13.488-19.125-2.7852-8.5508-17.324-8.5391 17.324z"/>
  <path d="m1087.2 176.69-11.273 34.711h-36.5l29.523 21.465-11.273 34.699 29.523-21.449 29.523 21.449-11.273-34.699 29.523-21.465h-36.484z"/>
  <path d="m1015.8 93.863c0 15.477-12.547 28.023-28.023 28.023-15.48 0-28.027-12.547-28.027-28.023 0-15.48 12.547-28.027 28.027-28.027 15.477 0 28.023 12.547 28.023 28.027"/>
  <path d="m1128.8 612.32c0 12.332-9.9961 22.324-22.328 22.324-12.328 0-22.324-9.9922-22.324-22.324 0-12.328 9.9961-22.324 22.324-22.324 12.332 0 22.328 9.9961 22.328 22.324"/>
  <path d="m215.16 214.44c0 16.301-13.215 29.512-29.516 29.512-16.297 0-29.512-13.211-29.512-29.512s13.215-29.512 29.512-29.512c16.301 0 29.516 13.211 29.516 29.512"/>
  <path d="m273.46 1106.4c4.0742 1.0391 8.1875 1.9492 12.352 2.7891l1.2266-6.125c-4.0508-0.8125-8.0742-1.7266-12.051-2.7109z"/>
  <path d="m84.477 897.62c1.2109 8.1641 2.8516 16.363 4.8633 24.375l6.0508-1.5234c-1.9492-7.8125-3.5508-15.812-4.7383-23.762z"/>
  <path d="m226.68 1089.6c7.4609 3.5391 15.199 6.75 22.988 9.5391l2.1016-5.8867c-7.5859-2.7109-15.125-5.8516-22.414-9.3008z"/>
  <path d="m81.738 860.65c0 4.1016 0.10156 8.1875 0.30078 12.25l6.2383-0.30078c-0.19922-3.9609-0.28906-7.9492-0.28906-11.949 0-4.0859 0.11328-8.1875 0.3125-12.312l-6.25-0.30078c-0.19922 4.2148-0.3125 8.4258-0.3125 12.613z"/>
  <path d="m169.09 1043.6c-5.9883-5.4375-11.738-11.211-17.113-17.188l-4.6367 4.1875c5.5117 6.125 11.426 12.051 17.539 17.625z"/>
  <path d="m111.73 966.07c-3.4492-7.3125-6.5742-14.852-9.2734-22.398l-5.8867 2.1133c2.7461 7.7344 5.957 15.461 9.5078 22.961z"/>
  <path d="m123.15 987.46-5.3516 3.2109c4.2383 7.0859 8.8867 14.051 13.801 20.688l5.0234-3.7109c-4.7969-6.4844-9.3203-13.273-13.473-20.188z"/>
  <path d="m207.96 1072.5c-6.8867-4.1367-13.676-8.6875-20.137-13.512l-3.7383 5.0117c6.6367 4.9492 13.602 9.6133 20.648 13.852z"/>
  <path d="m84.551 823.11 6.1758 0.91406c0.60156-4.0508 1.3125-8.1016 2.125-12.164l-6.125-1.2266c-0.83984 4.1641-1.5625 8.3125-2.1758 12.477z"/>
  <path d="m1120.4 950.14-6.25-0.125c-0.10156 4.125-0.3125 8.2109-0.6875 12.262l6.2266 0.57422c0.375-4.1992 0.61328-8.4219 0.71094-12.711z"/>
  <path d="m1076.1 1063.3c6.1484-6.9375 11.789-14.398 16.773-22.164l-5.2734-3.375c-4.7891 7.4883-10.227 14.688-16.188 21.375z"/>
  <path d="m1052.1 1077.7c-6.9141 5.6641-14.312 10.812-22 15.312l3.1484 5.3984c7.9883-4.6641 15.648-10 22.812-15.875z"/>
  <path d="m1100.2 1014.1 5.7383 2.4883c3.6875-8.4883 6.7266-17.336 9.0234-26.301l-6.0508-1.5508c-2.2344 8.6484-5.1602 17.176-8.7109 25.363z"/>
  <path d="m1005.9 1104.7c-8.3359 3.2266-16.977 5.8008-25.688 7.6641l1.3008 6.1133c9.0391-1.9258 17.988-4.6016 26.637-7.9492z"/>
  <path d="m941.27 1116-0.125 6.25c1.2109 0.023438 2.3984 0.039062 3.6016 0.039062 3.0508 0 6.1016-0.074218 9.125-0.23828l-0.3125-6.2383c-4.0742 0.21094-8.1484 0.30078-12.289 0.1875z"/>
  <path d="m1103.3 454.71h6.25v25h-6.25z"/>
  <path d="m1103.3 354.71h6.25v25h-6.25z"/>
  <path d="m1103.3 504.71h6.25v25h-6.25z"/>
  <path d="m1103.3 404.71h6.25v25h-6.25z"/>
  <path d="m386.57 669.34 105.06 181.99h43.887l-36.699 44.898c-28.75 1.8125-51.602 25.727-51.602 54.926 0 30.387 24.711 55.102 55.086 55.102s55.113-24.727 55.113-55.102c0-25.738-17.773-47.352-41.664-53.375l37.961-46.449h92.523l37.949 46.449c-23.887 6.0234-41.648 27.637-41.648 53.375 0 30.387 24.727 55.102 55.102 55.102s55.102-24.727 55.102-55.102c0-29.199-22.852-53.113-51.625-54.926l-36.676-44.898h43.875l105.06-181.99c16.836-6.8242 102.05-51.199 52.938-232.84 11.852-13.539 19.113-31.199 19.113-50.562 0-42.398-34.5-76.898-76.898-76.898v14.086c34.637 0 62.812 28.176 62.812 62.801s-28.188 62.801-62.812 62.801-62.789-28.176-62.789-62.801h-14.086c0 42.398 34.488 76.887 76.875 76.887 17.289 0 33.199-5.8008 46.062-15.461 39.387 154.09-23.762 197.91-43.051 207.39l-103.23-178.79h-216.68l-103.18 178.7c-18.887-9.6367-82.113-54.438-43.086-207.3 12.836 9.6484 28.762 15.461 46.051 15.461 42.398 0 76.887-34.5 76.887-76.887h-14.086c0 34.625-28.176 62.801-62.801 62.801s-62.801-28.176-62.801-62.801c0-34.637 28.176-62.801 62.801-62.801v-14.086c-42.398 0-76.887 34.5-76.887 76.898 0 19.363 7.25 37.023 19.113 50.562-49.141 181.65 36.086 226.02 52.922 232.84zm265.25-134.79c13 0 23.586 10.574 23.586 23.586 0 13-10.586 23.586-23.586 23.586-13.012 0-23.586-10.586-23.586-23.586 0-13.012 10.562-23.586 23.586-23.586zm8.3516 231.01h-123.23c3.5117-30.887 29.812-54.949 61.613-54.949 31.812 0 58.102 24.062 61.613 54.949zm-112-231.01c13.012 0 23.586 10.574 23.586 23.586 0 13-10.574 23.586-23.586 23.586-13 0-23.586-10.586-23.586-23.586 0.011718-13.012 10.586-23.586 23.586-23.586z"/>
  <path d="m598.56 417.62h111.94v-111.94c0-61.727-50.227-111.94-111.94-111.94s-111.93 50.211-111.93 111.94 50.199 111.94 111.93 111.94zm-52.574-158.54h105.16v14.086h-105.16zm0 39.562h105.16v14.086h-105.16zm0 39.551h105.16v14.086h-105.16z"/>
 </g>
</svg>
