<svg width="30" height="30" viewBox="0 0 30 30" fill="none" xmlns="http://www.w3.org/2000/svg">
<circle cx="15" cy="15" r="15" fill="#6F00F6"/>
<path fill-rule="evenodd" clip-rule="evenodd" d="M6.55963 10.09L15 5.21739L23.4404 10.09C23.4638 10.1034 23.4783 10.1285 23.4783 10.1554V19.8563C23.4783 19.8836 23.4638 19.9083 23.4404 19.9222L15.0379 24.7726L15.0368 24.7731L15.0357 24.7735L15.0346 24.7744L15.0323 24.7752L15.0312 24.7761L15.03 24.7765L15.0289 24.777L15.023 24.7792L15.0218 24.7796L15.0207 24.78H15.0194L15.0183 24.7804L15.0171 24.7809H15.0158L15.0146 24.7813H15.0134L15.0122 24.7817H15.011L15.0098 24.7822H15.0071L15.006 24.7826H14.9938L14.9926 24.7822H14.9902L14.989 24.7817H14.9878L14.9866 24.7813H14.9853L14.9841 24.7809H14.9829L14.9817 24.7804L14.9805 24.78H14.9793L14.9782 24.7796L14.9769 24.7792L14.9711 24.777L14.97 24.7765L14.9688 24.7761L14.9677 24.7752L14.9654 24.7744L14.9643 24.7735L14.9632 24.7731L14.9621 24.7726L6.55963 19.9222C6.5362 19.9083 6.52173 19.8836 6.52173 19.8563V10.1554C6.52173 10.1285 6.5362 10.1034 6.55963 10.09ZM6.67333 19.8126L14.9242 24.5756V19.2071L11.3611 17.1505C11.3376 17.1366 11.3232 17.1119 11.3232 17.0846V12.9708L6.67333 10.2866V19.8126ZM18.6768 12.9708V17.1284L15.0758 19.2071V24.5756L23.3267 19.8126V10.2866L18.6768 12.9708ZM11.4748 17.0409L14.9242 19.0322V15.0496L11.4748 13.0583V17.0409ZM18.5252 13.0864L15.0758 15.0777V19.0322L18.5252 17.0409V13.0864ZM11.5506 12.9271L15 14.9184L18.4494 12.9271L15 10.9358L11.5506 12.9271ZM15 10.7608L18.601 12.8396L23.2509 10.1554L15 5.39236L6.74913 10.1554L11.399 12.8396L15 10.7608Z" stroke="#F6F5FD" stroke-width="0.7" stroke-miterlimit="2" stroke-linejoin="round"/>
</svg>
