<svg xmlns:xlink="http://www.w3.org/1999/xlink" width="51.914" xmlns="http://www.w3.org/2000/svg" height="51" id="screenshot-60563b4a-ff4e-80db-8002-84baad884eef" viewBox="-0 -0 51.914 51" style="-webkit-print-color-adjust: exact;" fill="none" version="1.1"><g id="shape-60563b4a-ff4e-80db-8002-84baad884eef" rx="0" ry="0" style="fill: rgb(0, 0, 0);"><g id="shape-60563b4a-ff4e-80db-8002-84baad884efa"><g class="fills" id="fills-60563b4a-ff4e-80db-8002-84baad884efa"><path rx="0" ry="0" d="M51.914,47.386C51.914,49.382,50.266,51.000,48.235,51.000L3.679,51.000C1.647,51.000,-0.000,49.382,-0.000,47.386L0.000,3.614C0.000,1.618,1.647,-0.000,3.679,-0.000L48.235,0.000C50.267,0.000,51.914,1.618,51.914,3.614L51.914,47.386ZZ" style="fill: rgb(158, 255, 0);"/></g></g><g id="shape-60563b4a-ff4e-80db-8002-84baad884efb" rx="0" ry="0" style="fill: rgb(0, 0, 0);"><g id="shape-60563b4a-ff4e-80db-8002-84baad884efc"><g class="fills" id="fills-60563b4a-ff4e-80db-8002-84baad884efc"><path rx="0" ry="0" d="M25.808,29.576L32.657,36.305L28.623,36.305L21.479,29.287L38.931,12.143L27.473,12.143L15.582,23.825L15.582,14.695L19.004,14.695L19.004,16.593L21.602,14.040L21.602,12.143L12.983,12.143L12.983,28.451L12.983,29.987L12.983,38.858L23.575,38.858L13.765,29.219L28.550,14.695L32.657,14.695L17.804,29.287L27.547,38.858L38.931,38.858L27.645,27.771Z" style="fill: rgb(22, 21, 21);"/></g></g></g></g></svg>