<svg width="172" height="252" viewBox="0 0 172 252" fill="none" xmlns="http://www.w3.org/2000/svg">
<path fill-rule="evenodd" clip-rule="evenodd" d="M35.1052 3.90365e-08C34.9301 14.5904 41.6658 30.5622 53.9604 52.9437C59.4094 78.295 67.7363 98.644 78.8536 121.286C75.5771 149.177 81.8158 177.746 91.8211 205C89.2237 210.73 87.7034 214.817 87.2858 220.919C78.5342 229.789 71.8282 240.235 66.8352 252C55.98 249.359 46.0511 245.191 36.9251 239.7C30.2369 231.636 25.0959 222.425 22.6905 212.655C33.1905 209.446 44.0135 203.298 53.2125 193.533C39.2301 197.384 26.1584 197.719 14.8214 193.296C5.66314 177.86 1.22516 160.397 2.74614 142.854C14.6954 154.122 28.2444 160.812 43.7744 158.151C26.8261 148.235 11.4724 135.481 0.109427 117.972C-0.682611 101.239 2.89724 86.7059 8.50481 73.9145C18.7553 92.1103 32.3097 105.755 46.2617 117.219C32.4508 100.652 21.4639 80.2414 13.3889 58.2822C16.7484 35.7121 23.9611 16.6244 35.1052 3.90365e-08Z" fill="#7161EF"/>
<path fill-rule="evenodd" clip-rule="evenodd" d="M136.895 0C137.07 14.5904 130.334 30.5622 118.04 52.9437C112.591 78.295 104.264 98.644 93.1464 121.286C95.7183 143.179 92.4277 165.49 86.0543 187.254C85.2035 190.158 85.6401 221.867 86.094 222.348C94.1749 230.904 100.438 240.861 105.165 252C116.02 249.359 125.949 245.191 135.075 239.7C141.763 231.636 146.904 222.425 149.309 212.655C138.81 209.446 127.986 203.298 118.788 193.533C132.77 197.384 145.842 197.719 157.179 193.296C166.337 177.86 170.775 160.397 169.254 142.854C157.305 154.122 143.756 160.812 128.226 158.151C145.174 148.235 160.528 135.481 171.891 117.972C172.683 101.239 169.103 86.7059 163.495 73.9145C153.245 92.1102 139.69 105.754 125.738 117.219C139.549 100.652 150.536 80.2414 158.611 58.2822C155.252 35.7121 148.039 16.6244 136.895 0Z" fill="#7161EF"/>
</svg>
