<svg width="24" height="25" viewBox="0 0 24 25" fill="none" xmlns="http://www.w3.org/2000/svg">
<g opacity="0.5">
<path d="M13.5 14.75H18.75M5.25 14.75H6.75M6.75 14.75C6.75 15.7855 7.58947 16.625 8.625 16.625C9.66053 16.625 10.5 15.7855 10.5 14.75C10.5 13.7145 9.66053 12.875 8.625 12.875C7.58947 12.875 6.75 13.7145 6.75 14.75ZM18 10.25H18.75M5.25 10.25H10.5M15.375 12.125C14.3395 12.125 13.5 11.2855 13.5 10.25C13.5 9.21447 14.3395 8.375 15.375 8.375C16.4105 8.375 17.25 9.21447 17.25 10.25C17.25 11.2855 16.4105 12.125 15.375 12.125Z" stroke="white" stroke-width="1.125" stroke-linecap="round" stroke-linejoin="round"/>
</g>
</svg>
