<svg width="24" height="25" viewBox="0 0 24 25" fill="none" xmlns="http://www.w3.org/2000/svg">
<path d="M10.3078 14.5273L15.1539 9.68115M20.1113 6.72363L16.0207 20.0182C15.6541 21.2096 15.4706 21.8057 15.1544 22.0032C14.8802 22.1746 14.5406 22.2032 14.2419 22.0793C13.8975 21.9364 13.618 21.3783 13.0603 20.263L10.4694 15.0811C10.3809 14.9041 10.3366 14.8159 10.2775 14.7393C10.225 14.6712 10.1645 14.6099 10.0965 14.5574C10.0215 14.4997 9.93486 14.4564 9.76577 14.3718L4.57192 11.7749C3.45662 11.2173 2.89892 10.9382 2.75601 10.5938C2.63207 10.2951 2.66033 9.95519 2.83169 9.68093C3.02928 9.3647 3.62523 9.18099 4.81704 8.81428L18.1116 4.72363C19.0486 4.43534 19.5173 4.29131 19.8337 4.40749C20.1094 4.50869 20.3267 4.7258 20.4279 5.00147C20.544 5.31779 20.3999 5.78623 20.1119 6.72225L20.1113 6.72363Z" stroke="#7161EF" stroke-width="1.5" stroke-linecap="round" stroke-linejoin="round"/>
</svg>
