<svg width="41" height="15" viewBox="0 0 41 15" fill="none" xmlns="http://www.w3.org/2000/svg">
<path d="M2.66847 6V1.8H4.33647C4.59247 1.8 4.82047 1.852 5.02047 1.956C5.22447 2.056 5.38247 2.2 5.49447 2.388C5.61047 2.572 5.66847 2.794 5.66847 3.054V3.132C5.66847 3.392 5.60847 3.616 5.48847 3.804C5.37247 3.992 5.21447 4.136 5.01447 4.236C4.81447 4.336 4.58847 4.386 4.33647 4.386H3.31647V6H2.66847ZM3.31647 3.798H4.27047C4.49847 3.798 4.68047 3.738 4.81647 3.618C4.95247 3.498 5.02047 3.334 5.02047 3.126V3.066C5.02047 2.854 4.95247 2.688 4.81647 2.568C4.68047 2.448 4.49847 2.388 4.27047 2.388H3.31647V3.798ZM7.8617 6.084C7.3457 6.084 6.9357 5.94 6.6317 5.652C6.3277 5.36 6.1757 4.94 6.1757 4.392V3.408C6.1757 2.86 6.3277 2.442 6.6317 2.154C6.9357 1.862 7.3457 1.716 7.8617 1.716C8.3777 1.716 8.7877 1.862 9.0917 2.154C9.3997 2.442 9.5537 2.86 9.5537 3.408V4.392C9.5537 4.94 9.3997 5.36 9.0917 5.652C8.7877 5.94 8.3777 6.084 7.8617 6.084ZM7.8617 5.502C8.1937 5.502 8.4497 5.406 8.6297 5.214C8.8097 5.018 8.8997 4.752 8.8997 4.416V3.384C8.8997 3.048 8.8097 2.784 8.6297 2.592C8.4497 2.396 8.1937 2.298 7.8617 2.298C7.5377 2.298 7.2837 2.396 7.0997 2.592C6.9157 2.784 6.8237 3.048 6.8237 3.384V4.416C6.8237 4.752 6.9157 5.018 7.0997 5.214C7.2837 5.406 7.5377 5.502 7.8617 5.502ZM10.6578 6L10.0398 1.8H10.6878L11.1918 5.562H11.2878L11.9358 1.8H13.0698L13.7178 5.562H13.8138L14.3118 1.8H14.9598L14.3418 6H13.2078L12.5478 2.184H12.4518L11.7978 6H10.6578ZM15.6001 6V1.8H18.2461V2.388H16.2481V3.594H18.0781V4.182H16.2481V5.412H18.2761V6H15.6001ZM18.9517 6V1.8H20.7157C20.9757 1.8 21.2037 1.846 21.3997 1.938C21.5997 2.026 21.7537 2.154 21.8617 2.322C21.9737 2.49 22.0297 2.69 22.0297 2.922V2.988C22.0297 3.252 21.9657 3.464 21.8377 3.624C21.7137 3.78 21.5617 3.89 21.3817 3.954V4.05C21.5337 4.058 21.6557 4.11 21.7477 4.206C21.8397 4.298 21.8857 4.432 21.8857 4.608V6H21.2317V4.698C21.2317 4.59 21.2037 4.504 21.1477 4.44C21.0917 4.376 21.0017 4.344 20.8777 4.344H19.5997V6H18.9517ZM19.5997 3.756H20.6437C20.8757 3.756 21.0557 3.698 21.1837 3.582C21.3117 3.462 21.3757 3.3 21.3757 3.096V3.048C21.3757 2.844 21.3117 2.684 21.1837 2.568C21.0597 2.448 20.8797 2.388 20.6437 2.388H19.5997V3.756ZM22.7427 6V1.8H25.3887V2.388H23.3907V3.594H25.2207V4.182H23.3907V5.412H25.4187V6H22.7427ZM25.9383 6V5.424H26.5023V2.376H25.9383V1.8H27.6183C28.1783 1.8 28.6063 1.942 28.9023 2.226C29.2023 2.51 29.3523 2.938 29.3523 3.51V4.296C29.3523 4.868 29.2023 5.296 28.9023 5.58C28.6063 5.86 28.1783 6 27.6183 6H25.9383ZM27.1562 5.412H27.6243C27.9883 5.412 28.2583 5.32 28.4343 5.136C28.6103 4.952 28.6983 4.678 28.6983 4.314V3.486C28.6983 3.118 28.6103 2.844 28.4343 2.664C28.2583 2.484 27.9883 2.394 27.6243 2.394H27.1562V5.412ZM31.4578 6V5.424H32.0218V2.376H31.4578V1.8H33.5878C33.8398 1.8 34.0598 1.844 34.2478 1.932C34.4358 2.016 34.5818 2.138 34.6858 2.298C34.7938 2.454 34.8478 2.64 34.8478 2.856V2.916C34.8478 3.108 34.8118 3.266 34.7398 3.39C34.6678 3.514 34.5798 3.61 34.4758 3.678C34.3758 3.746 34.2798 3.794 34.1878 3.822V3.918C34.2798 3.942 34.3778 3.99 34.4818 4.062C34.5898 4.13 34.6798 4.226 34.7518 4.35C34.8278 4.474 34.8658 4.636 34.8658 4.836V4.896C34.8658 5.128 34.8118 5.326 34.7038 5.49C34.5958 5.654 34.4458 5.78 34.2538 5.868C34.0658 5.956 33.8478 6 33.5998 6H31.4578ZM32.6758 5.412H33.5218C33.7378 5.412 33.9078 5.36 34.0318 5.256C34.1558 5.152 34.2178 5.008 34.2178 4.824V4.77C34.2178 4.586 34.1558 4.442 34.0318 4.338C33.9118 4.234 33.7418 4.182 33.5218 4.182H32.6758V5.412ZM32.6758 3.588H33.5218C33.7258 3.588 33.8898 3.538 34.0138 3.438C34.1378 3.334 34.1998 3.194 34.1998 3.018V2.958C34.1998 2.782 34.1378 2.644 34.0138 2.544C33.8938 2.44 33.7298 2.388 33.5218 2.388H32.6758V3.588ZM36.5904 6V4.476L35.1324 1.8H35.8644L36.8724 3.702H36.9624L37.9704 1.8H38.7024L37.2444 4.476V6H36.5904ZM2.00978 14V8.4H2.87378V10.728H3.00178L5.08978 8.4H6.21778L3.68978 11.16L6.30578 14H5.14578L3.00178 11.624H2.87378V14H2.00978ZM11.0982 14.112C10.4102 14.112 9.86349 13.92 9.45816 13.536C9.05282 13.1467 8.85016 12.5867 8.85016 11.856V10.544C8.85016 9.81333 9.05282 9.256 9.45816 8.872C9.86349 8.48267 10.4102 8.288 11.0982 8.288C11.7862 8.288 12.3328 8.48267 12.7382 8.872C13.1488 9.256 13.3542 9.81333 13.3542 10.544V11.856C13.3542 12.5867 13.1488 13.1467 12.7382 13.536C12.3328 13.92 11.7862 14.112 11.0982 14.112ZM11.0982 13.336C11.5408 13.336 11.8822 13.208 12.1222 12.952C12.3622 12.6907 12.4822 12.336 12.4822 11.888V10.512C12.4822 10.064 12.3622 9.712 12.1222 9.456C11.8822 9.19467 11.5408 9.064 11.0982 9.064C10.6662 9.064 10.3275 9.19467 10.0822 9.456C9.83682 9.712 9.71416 10.064 9.71416 10.512V11.888C9.71416 12.336 9.83682 12.6907 10.0822 12.952C10.3275 13.208 10.6662 13.336 11.0982 13.336ZM16.416 14V8.4H17.28V14H16.416ZM20.4863 14V8.4H22.1503L23.6703 13.424H23.7983V8.4H24.6543V14H22.9903L21.4703 8.968H21.3423V14H20.4863ZM29.9653 14.112C29.2773 14.112 28.7307 13.92 28.3253 13.536C27.92 13.1467 27.7173 12.5867 27.7173 11.856V10.544C27.7173 9.81333 27.92 9.256 28.3253 8.872C28.7307 8.48267 29.2773 8.288 29.9653 8.288C30.6533 8.288 31.2 8.48267 31.6053 8.872C32.016 9.256 32.2213 9.81333 32.2213 10.544V11.856C32.2213 12.5867 32.016 13.1467 31.6053 13.536C31.2 13.92 30.6533 14.112 29.9653 14.112ZM29.9653 13.336C30.408 13.336 30.7493 13.208 30.9893 12.952C31.2293 12.6907 31.3493 12.336 31.3493 11.888V10.512C31.3493 10.064 31.2293 9.712 30.9893 9.456C30.7493 9.19467 30.408 9.064 29.9653 9.064C29.5333 9.064 29.1947 9.19467 28.9493 9.456C28.704 9.712 28.5813 10.064 28.5813 10.512V11.888C28.5813 12.336 28.704 12.6907 28.9493 12.952C29.1947 13.208 29.5333 13.336 29.9653 13.336ZM37.1872 14.112C36.7659 14.112 36.3926 14.0373 36.0672 13.888C35.7419 13.7387 35.4859 13.52 35.2992 13.232C35.1179 12.9387 35.0272 12.584 35.0272 12.168V11.968H35.8832V12.168C35.8832 12.5627 36.0006 12.8587 36.2352 13.056C36.4752 13.2533 36.7926 13.352 37.1872 13.352C37.5872 13.352 37.8886 13.2693 38.0912 13.104C38.2939 12.9333 38.3952 12.7147 38.3952 12.448C38.3952 12.272 38.3472 12.128 38.2512 12.016C38.1552 11.904 38.0192 11.816 37.8432 11.752C37.6672 11.6827 37.4566 11.6187 37.2112 11.56L36.9152 11.488C36.5579 11.4027 36.2459 11.2987 35.9792 11.176C35.7179 11.048 35.5152 10.88 35.3712 10.672C35.2272 10.464 35.1552 10.1973 35.1552 9.872C35.1552 9.54133 35.2352 9.25867 35.3952 9.024C35.5606 8.78933 35.7872 8.608 36.0752 8.48C36.3632 8.352 36.7019 8.288 37.0912 8.288C37.4806 8.288 37.8272 8.35467 38.1312 8.488C38.4406 8.62133 38.6832 8.81867 38.8592 9.08C39.0352 9.34133 39.1232 9.66933 39.1232 10.064V10.352H38.2672V10.064C38.2672 9.824 38.2166 9.62933 38.1152 9.48C38.0192 9.33067 37.8832 9.22133 37.7072 9.152C37.5312 9.08267 37.3259 9.048 37.0912 9.048C36.7499 9.048 36.4832 9.12 36.2912 9.264C36.1046 9.40267 36.0112 9.59733 36.0112 9.848C36.0112 10.0187 36.0512 10.16 36.1312 10.272C36.2166 10.3787 36.3392 10.4667 36.4992 10.536C36.6592 10.6053 36.8592 10.6667 37.0992 10.72L37.3952 10.792C37.7579 10.872 38.0779 10.976 38.3552 11.104C38.6326 11.2267 38.8512 11.3947 39.0112 11.608C39.1712 11.8213 39.2512 12.096 39.2512 12.432C39.2512 12.768 39.1659 13.0613 38.9952 13.312C38.8299 13.5627 38.5926 13.76 38.2832 13.904C37.9739 14.0427 37.6086 14.112 37.1872 14.112Z" fill="#F7DCBF"/>
</svg>
