<svg width="14" height="15" viewBox="0 0 14 15" fill="none" xmlns="http://www.w3.org/2000/svg">
<g clip-path="url(#clip0)">
<path d="M4.10111 14.1059C4.28169 14.1059 4.42807 13.9584 4.42807 13.7763C4.42807 13.5943 4.28169 13.4468 4.10111 13.4468C3.92054 13.4468 3.77415 13.5943 3.77415 13.7763C3.77415 13.9584 3.92054 14.1059 4.10111 14.1059Z" fill="#D46210"/>
<path d="M1.22588 4.85645L1.08121 5.15162L0.758194 5.19896L0.992111 5.42872L0.93684 5.75315L1.22588 5.59997L1.51492 5.75315L1.4598 5.42872L1.69357 5.19896L1.37026 5.15162L1.22588 4.85645Z" fill="#D46210"/>
<path d="M3.91066 2.38953L4.11045 2.28383L4.3098 2.38953L4.27174 2.1655L4.43303 2.00688L4.21005 1.97425L4.11045 1.77051L4.01055 1.97425L3.78743 2.00688L3.94887 2.1655L3.91066 2.38953Z" fill="#D46210"/>
<path d="M12.3619 10.7739L12.5232 10.9325L12.4851 11.1564L12.6846 11.0507L12.8842 11.1564L12.8462 10.9325L13.0075 10.7739L12.7843 10.7411L12.6846 10.5374L12.585 10.7411L12.3619 10.7739Z" fill="#D46210"/>
<path d="M12.6846 2.84595L12.553 3.25417H12.1272L12.4717 3.50657L12.3401 3.91464L12.6846 3.66239L13.029 3.91464L12.8975 3.50657L13.242 3.25417H12.8163L12.6846 2.84595Z" fill="#D46210"/>
<path d="M11.5243 2.20138C11.7049 2.20138 11.8513 2.05383 11.8513 1.87181C11.8513 1.68979 11.7049 1.54224 11.5243 1.54224C11.3438 1.54224 11.1974 1.68979 11.1974 1.87181C11.1974 2.05383 11.3438 2.20138 11.5243 2.20138Z" fill="#D46210"/>
<path d="M12.9087 8.23138C13.0526 8.23138 13.1692 8.11384 13.1692 7.96884C13.1692 7.82384 13.0526 7.7063 12.9087 7.7063C12.7649 7.7063 12.6483 7.82384 12.6483 7.96884C12.6483 8.11384 12.7649 8.23138 12.9087 8.23138Z" fill="#D46210"/>
<path d="M2.16591 3.63701C2.35607 3.63701 2.51022 3.48162 2.51022 3.28994C2.51022 3.09826 2.35607 2.94287 2.16591 2.94287C1.97575 2.94287 1.82159 3.09826 1.82159 3.28994C1.82159 3.48162 1.97575 3.63701 2.16591 3.63701Z" fill="#D46210"/>
<path d="M3.1904 13.7796C3.23794 13.7918 3.28592 13.8026 3.33448 13.8124L3.34877 13.7404C3.30152 13.7308 3.25457 13.7201 3.20819 13.7085L3.1904 13.7796Z" fill="#D46210"/>
<path d="M0.98555 11.3242C0.999696 11.4202 1.0188 11.5166 1.04228 11.6109L1.11286 11.5929C1.09011 11.5011 1.07145 11.407 1.05759 11.3135L0.98555 11.3242Z" fill="#D46210"/>
<path d="M2.64455 13.5823C2.73161 13.6239 2.82188 13.6617 2.91273 13.6945L2.93723 13.6252C2.84871 13.5933 2.76078 13.5564 2.67575 13.5159L2.64455 13.5823Z" fill="#D46210"/>
<path d="M0.953598 10.8893C0.953598 10.9375 0.954765 10.9856 0.957098 11.0334L1.02987 11.0298C1.02754 10.9832 1.02651 10.9363 1.02651 10.8893C1.02651 10.8412 1.02783 10.793 1.03016 10.7445L0.957244 10.741C0.954911 10.7905 0.953598 10.84 0.953598 10.8893Z" fill="#D46210"/>
<path d="M1.97268 13.0407C1.90283 12.9768 1.83575 12.9089 1.77304 12.8386L1.71893 12.8879C1.78325 12.9599 1.85222 13.0296 1.92354 13.0951L1.97268 13.0407Z" fill="#D46210"/>
<path d="M1.30347 12.1291C1.26322 12.0432 1.22676 11.9545 1.19526 11.8657L1.12657 11.8906C1.15866 11.9816 1.19613 12.0724 1.23755 12.1606L1.30347 12.1291Z" fill="#D46210"/>
<path d="M1.43675 12.3806L1.37433 12.4184C1.42377 12.5017 1.47802 12.5836 1.53533 12.6617L1.59395 12.618C1.53795 12.5417 1.48516 12.4619 1.43675 12.3806Z" fill="#D46210"/>
<path d="M2.42622 13.3811C2.34586 13.3324 2.26667 13.2789 2.19128 13.2222L2.14767 13.2811C2.22511 13.3393 2.30634 13.3942 2.38859 13.444L2.42622 13.3811Z" fill="#D46210"/>
<path d="M0.98642 10.4477L1.05846 10.4585C1.06546 10.4108 1.07377 10.3632 1.08325 10.3154L1.01179 10.301C1.00202 10.35 0.993566 10.3988 0.98642 10.4477Z" fill="#D46210"/>
<path d="M13.0712 11.9417L12.9983 11.9402C12.9971 11.9887 12.9946 12.0368 12.9902 12.0844L13.0629 12.0912C13.0672 12.0418 13.07 11.9921 13.0712 11.9417Z" fill="#D46210"/>
<path d="M12.5542 13.2722C12.6259 13.1907 12.6917 13.1029 12.7499 13.0116L12.6884 12.9719C12.6325 13.06 12.5691 13.1446 12.4995 13.2233L12.5542 13.2722Z" fill="#D46210"/>
<path d="M12.2739 13.4419C12.1933 13.5085 12.1069 13.5691 12.0173 13.622L12.054 13.6855C12.1472 13.6306 12.2366 13.5679 12.3202 13.4988L12.2739 13.4419Z" fill="#D46210"/>
<path d="M12.8355 12.694L12.9025 12.7233C12.9455 12.6235 12.9809 12.5194 13.0078 12.414L12.9372 12.3958C12.9111 12.4975 12.8769 12.5977 12.8355 12.694Z" fill="#D46210"/>
<path d="M11.7356 13.759C11.6384 13.797 11.5376 13.8272 11.4359 13.8491L11.4511 13.921C11.5565 13.8984 11.661 13.8669 11.7619 13.8275L11.7356 13.759Z" fill="#D46210"/>
<path d="M10.9815 13.8923L10.9801 13.9658C10.9942 13.9661 11.0081 13.9663 11.0221 13.9663C11.0577 13.9663 11.0933 13.9654 11.1285 13.9635L11.1249 13.8901C11.0774 13.8926 11.0298 13.8937 10.9815 13.8923Z" fill="#D46210"/>
<path d="M12.9452 6.11548H12.8723V6.40948H12.9452V6.11548Z" fill="#D46210"/>
<path d="M12.9452 4.93945H12.8723V5.23345H12.9452V4.93945Z" fill="#D46210"/>
<path d="M12.9452 6.70361H12.8723V6.99761H12.9452V6.70361Z" fill="#D46210"/>
<path d="M12.9452 5.52734H12.8723V5.82135H12.9452V5.52734Z" fill="#D46210"/>
<path d="M4.02514 10.5066C3.91766 10.5873 3.84679 10.7152 3.84679 10.8604C3.84679 11.1042 4.04366 11.3025 4.2856 11.3025C4.52739 11.3025 4.72427 11.1042 4.72427 10.8604C4.72427 10.6166 4.52739 10.4183 4.2856 10.4183C4.21997 10.4183 4.15814 10.4338 4.10214 10.4602L4.10477 10.4585C3.50262 9.44571 3.8675 8.74599 4.02952 8.5149C4.18527 8.71409 4.42633 8.84271 4.6967 8.84271C4.7196 8.84271 4.74235 8.84095 4.76481 8.83933C5.00718 9.67268 5.69566 10.3151 6.55156 10.484C6.27943 10.6414 6.09524 10.9366 6.09524 11.275H6.25974C6.25974 10.8635 6.59166 10.5287 6.99999 10.5287C7.40833 10.5287 7.74024 10.8635 7.74024 11.275H7.90474C7.90474 10.9366 7.72056 10.6414 7.44843 10.484C8.30433 10.3151 8.99281 9.67253 9.23518 8.83933C9.25764 8.8411 9.28039 8.84271 9.30328 8.84271C9.57337 8.84271 9.81385 8.71453 9.96974 8.51593C10.1291 8.74908 10.4907 9.45688 9.89522 10.4585L9.8977 10.46C9.84185 10.4338 9.78001 10.4183 9.71439 10.4183C9.4726 10.4183 9.27572 10.6167 9.27572 10.8604C9.27572 11.1042 9.4726 11.3025 9.71439 11.3025C9.95633 11.3025 10.1532 11.1042 10.1532 10.8604C10.1532 10.7152 10.0825 10.5873 9.97485 10.5066L10.0362 10.5437C10.7276 9.38044 10.2146 8.56459 10.0637 8.36599C10.1204 8.25119 10.1531 8.12256 10.1531 7.986C10.1531 7.51369 9.7717 7.12928 9.30314 7.12928C9.2311 7.12928 9.16139 7.13928 9.0946 7.15648C8.72768 6.39664 7.96774 5.86582 7.08195 5.83451V4.35422C7.15837 4.3698 7.23143 4.40714 7.29064 4.46682C7.4512 4.62852 7.4512 4.8915 7.29064 5.0532L7.40687 5.17036C7.63145 4.94398 7.63145 4.57589 7.40687 4.34966C7.18243 4.12328 6.81697 4.12343 6.59268 4.34966C6.36824 4.57589 6.36824 4.94398 6.59268 5.17036L6.70891 5.0532C6.54849 4.8915 6.54849 4.62837 6.70891 4.46682C6.76812 4.40714 6.84118 4.3698 6.91774 4.35422V5.83436C6.03195 5.86567 5.27202 6.39649 4.9051 7.15633C4.83831 7.13928 4.7686 7.12914 4.69656 7.12914C4.228 7.12914 3.84664 7.51339 3.84664 7.98585C3.84664 8.12242 3.87945 8.25119 3.93604 8.36585C3.78525 8.56444 3.27206 9.38029 3.96345 10.5435L4.02514 10.5066ZM7.82264 7.2119C8.06458 7.2119 8.26145 7.41035 8.26145 7.65422C8.26145 7.89809 8.06458 8.09654 7.82264 8.09654C7.5807 8.09654 7.38383 7.89809 7.38383 7.65422C7.38383 7.41035 7.58056 7.2119 7.82264 7.2119ZM6.17735 7.2119C6.41929 7.2119 6.61616 7.41035 6.61616 7.65422C6.61616 7.89809 6.41929 8.09654 6.17735 8.09654C5.93541 8.09654 5.73854 7.89809 5.73854 7.65422C5.73854 7.41035 5.93541 7.2119 6.17735 7.2119Z" fill="#D46210"/>
<path d="M7.05484 12.6016C7.28161 12.6016 7.46609 12.4156 7.46609 12.187V11.3302C7.46609 11.1016 7.28146 10.9158 7.05484 10.9158H6.94517C6.7184 10.9158 6.53392 11.1017 6.53392 11.3302V12.187C6.53392 12.4156 6.71855 12.6016 6.94517 12.6016H7.05484Z" fill="#D46210"/>
<path d="M5.91427 5.85462C5.62421 5.56224 5.46452 5.17357 5.46452 4.76021C5.46452 4.3467 5.62421 3.95803 5.91427 3.66565C6.20419 3.37341 6.58991 3.2123 7 3.2123C7.41008 3.2123 7.79581 3.37341 8.08573 3.66565C8.68437 4.26908 8.68437 5.25119 8.08573 5.85462L8.20196 5.97178C8.86477 5.30367 8.86477 4.2166 8.20196 3.54849C7.88098 3.22479 7.45398 3.04663 7 3.04663C6.54602 3.04663 6.11902 3.22479 5.79804 3.54849C5.47691 3.87218 5.30002 4.30245 5.30002 4.76021C5.30002 5.21782 5.47691 5.64824 5.79804 5.97178L5.91427 5.85462Z" fill="#D46210"/>
<path d="M7.81434 5.58093C8.26307 5.12831 8.26307 4.39199 7.81434 3.93938C7.59675 3.7202 7.30757 3.59937 6.99986 3.59937C6.69244 3.59937 6.40311 3.72005 6.18567 3.93938C5.96823 4.1587 5.84836 4.4502 5.84836 4.76022C5.84836 5.07025 5.96809 5.36175 6.18567 5.58093L6.3019 5.46377C6.11552 5.27575 6.01286 5.02585 6.01286 4.76008C6.01286 4.4943 6.11552 4.2444 6.3019 4.05639C6.48827 3.86852 6.73634 3.76503 6.99986 3.76503C7.26382 3.76503 7.51159 3.86852 7.69811 4.05639C8.08282 4.44447 8.08282 5.07569 7.69811 5.46377L7.81434 5.58093Z" fill="#D46210"/>
</g>
<defs>
<clipPath id="clip0">
<rect width="14" height="14.112" fill="white" transform="translate(0 0.768066)"/>
</clipPath>
</defs>
</svg>
