<svg width="24" height="24" viewBox="0 0 24 24" fill="none" xmlns="http://www.w3.org/2000/svg">
<g clip-path="url(#clip0)">
<path d="M0 12C0 14.3734 0.703788 16.6935 2.02236 18.6668C3.34094 20.6402 5.21509 22.1783 7.4078 23.0866C9.60051 23.9948 12.0133 24.2324 14.3411 23.7694C16.6689 23.3064 18.8071 22.1635 20.4853 20.4853C22.1635 18.8071 23.3064 16.6689 23.7694 14.3411C24.2324 12.0133 23.9948 9.60051 23.0866 7.4078C22.1783 5.21509 20.6402 3.34094 18.6668 2.02236C16.6935 0.703788 14.3734 0 12 0V0C8.81844 0.00339439 5.76817 1.26877 3.51847 3.51847C1.26877 5.76817 0.00339439 8.81844 0 12H0ZM22.9741 12C22.9746 14.1712 22.3312 16.2938 21.1253 18.0993C19.9194 19.9048 18.2051 21.3121 16.1992 22.1432C14.1934 22.9743 11.9861 23.1919 9.85662 22.7685C7.7271 22.345 5.77101 21.2995 4.23573 19.7643C2.70046 18.229 1.65498 16.2729 1.23152 14.1434C0.808064 12.0139 1.02566 9.80661 1.85677 7.80078C2.68789 5.79494 4.0952 4.08064 5.9007 2.8747C7.70621 1.66876 9.82879 1.02535 12 1.02586V1.02586C14.9097 1.02858 17.6994 2.18565 19.7569 4.24311C21.8143 6.30057 22.9714 9.09031 22.9741 12Z" fill="#F7DCBF"/>
<path d="M9.89186 16.324L10.3432 15.8726L6.79376 12.3206H17.9808V11.6794H6.79376L10.3432 8.12997L9.89186 7.67603L5.56529 12L9.89186 16.324Z" fill="#F7DCBF"/>
</g>
<defs>
<clipPath id="clip0">
<rect width="24" height="24" fill="white"/>
</clipPath>
</defs>
</svg>
