<svg width="78" height="38" viewBox="0 0 78 38" fill="none" xmlns="http://www.w3.org/2000/svg">
<path d="M77.7071 20.7071C78.0976 20.3166 78.0976 19.6834 77.7071 19.2929L71.3431 12.9289C70.9526 12.5384 70.3195 12.5384 69.9289 12.9289C69.5384 13.3195 69.5384 13.9526 69.9289 14.3431L75.5858 20L69.9289 25.6569C69.5384 26.0474 69.5384 26.6805 69.9289 27.0711C70.3195 27.4616 70.9526 27.4616 71.3431 27.0711L77.7071 20.7071ZM0 21H77V19H0V21Z" fill="#E2B7EC"/>
<circle cx="39" cy="19" r="18" fill="#11001F" stroke="#E2B7EC" stroke-width="2"/>
<path d="M32.9963 14.216C32.2816 14.216 31.6149 14.3973 30.9963 14.76C30.3883 15.112 29.9029 15.5973 29.5403 16.216C29.1776 16.824 28.9963 17.4907 28.9963 18.216V20.328C28.9963 21.0853 29.1029 21.7093 29.3163 22.2C29.6149 22.8933 30.0683 23.4587 30.6763 23.896C31.2843 24.3333 31.9669 24.5787 32.7243 24.632V19.432H37.6043V20.488C37.6043 21.1707 37.5029 21.7787 37.3003 22.312C36.9696 23.1973 36.4149 23.9067 35.6363 24.44C34.8576 24.9733 33.9776 25.24 32.9963 25.24C32.0683 25.24 31.2203 24.9893 30.4523 24.488C29.6949 23.976 29.1403 23.2987 28.7883 22.456C28.5323 21.8587 28.4043 21.1493 28.4043 20.328V18.216C28.4043 17.384 28.6069 16.616 29.0123 15.912C29.4283 15.208 29.9883 14.6533 30.6923 14.248C31.3963 13.832 32.1643 13.624 32.9963 13.624C33.6896 13.624 34.3243 13.7413 34.9003 13.976C35.4763 14.2 35.9669 14.5307 36.3723 14.968C36.7029 15.3307 36.9696 15.736 37.1723 16.184C37.3856 16.632 37.4923 17.0853 37.4923 17.544H36.9163C36.9056 17.1493 36.8043 16.76 36.6123 16.376C36.4309 15.992 36.1963 15.6453 35.9083 15.336C35.1936 14.5893 34.2229 14.216 32.9963 14.216ZM37.0123 20.008H33.3003V24.632C34.0683 24.5787 34.7563 24.3387 35.3643 23.912C35.9829 23.4747 36.4363 22.8987 36.7243 22.184C36.9163 21.6827 37.0123 21.1173 37.0123 20.488V20.008ZM40.28 18.2C40.28 17.368 40.488 16.5947 40.904 15.88C41.32 15.1653 41.88 14.6 42.584 14.184C43.2987 13.768 44.0773 13.56 44.92 13.56C45.7627 13.56 46.536 13.768 47.24 14.184C47.9547 14.6 48.52 15.1653 48.936 15.88C49.352 16.5947 49.56 17.368 49.56 18.2V20.664C49.56 21.496 49.352 22.2693 48.936 22.984C48.52 23.6987 47.9547 24.264 47.24 24.68C46.536 25.096 45.7627 25.304 44.92 25.304C44.0773 25.304 43.2987 25.096 42.584 24.68C41.88 24.264 41.32 23.6987 40.904 22.984C40.488 22.2693 40.28 21.496 40.28 20.664V18.2ZM43.192 20.664C43.192 21.176 43.352 21.6133 43.672 21.976C43.992 22.3387 44.408 22.52 44.92 22.52C45.4213 22.52 45.832 22.3387 46.152 21.976C46.472 21.6133 46.632 21.176 46.632 20.664V18.184C46.632 17.6613 46.472 17.224 46.152 16.872C45.832 16.52 45.4213 16.344 44.92 16.344C44.408 16.344 43.992 16.52 43.672 16.872C43.352 17.224 43.192 17.6613 43.192 18.184V20.664Z" fill="#E2B7EC"/>
</svg>
