<svg id="Layer_1" data-name="Layer 1" xmlns="http://www.w3.org/2000/svg" viewBox="0 0 635.68 86.92"><defs><style>.cls-1,.cls-2{fill:#f7dcbf;}.cls-2{font-size:12px;font-family:Orbitron-Black, Orbitron;font-weight:800;}.cls-3{letter-spacing:-0.01em;}.cls-4{letter-spacing:0.01em;}</style></defs><path class="cls-1" d="M91.6,74.85a.91.91,0,0,1-.7-.3,1.12,1.12,0,0,1-.1-1.6l20.7-23.6a8.26,8.26,0,0,1,12.4,0l19.2,23.4a1.14,1.14,0,0,1-1.8,1.4l-19.1-23.3a6.06,6.06,0,0,0-9,0L92.5,74.45A1,1,0,0,1,91.6,74.85Z" transform="translate(16.39 -11.33)"/><path class="cls-1" d="M166.6,61.85a1.22,1.22,0,0,1-.9-.4l-14.3-17.1a3.64,3.64,0,0,0-5.4,0l-13.9,15.8a1.13,1.13,0,0,1-1.7-1.5l13.8-15.8a5.84,5.84,0,0,1,8.8,0l14.4,17.2a1.22,1.22,0,0,1-.1,1.6A1.85,1.85,0,0,1,166.6,61.85Z" transform="translate(16.39 -11.33)"/><path class="cls-1" d="M57.64,40.52A10.78,10.78,0,1,1,68.42,29.74,10.78,10.78,0,0,1,57.64,40.52Zm0-19.6a8.87,8.87,0,1,0,8.83,8.91A8.81,8.81,0,0,0,57.64,20.92Z" transform="translate(16.39 -11.33)"/><path class="cls-1" d="M57.64,16.93a.93.93,0,0,1-.93-.93V12.26a.94.94,0,0,1,1.87,0V16A.85.85,0,0,1,57.64,16.93Z" transform="translate(16.39 -11.33)"/><path class="cls-1" d="M50.77,18.8a.93.93,0,0,1-.85-.51l-1.87-3.23a.93.93,0,0,1,1.62-.93l1.86,3.22a1,1,0,0,1-.34,1.28A.65.65,0,0,1,50.77,18.8Z" transform="translate(16.39 -11.33)"/><path class="cls-1" d="M45.68,23.8a.62.62,0,0,1-.51-.17l-3.23-1.86a1,1,0,0,1-.34-1.28,1,1,0,0,1,1.28-.33L46.1,22a1,1,0,0,1,.34,1.28A.74.74,0,0,1,45.68,23.8Z" transform="translate(16.39 -11.33)"/><path class="cls-1" d="M43.81,30.76H40.16a.93.93,0,1,1,0-1.86H43.9a.94.94,0,0,1,.93.93A1,1,0,0,1,43.81,30.76Z" transform="translate(16.39 -11.33)"/><path class="cls-1" d="M42.45,39.5A.93.93,0,0,1,41.6,39a1,1,0,0,1,.34-1.27l3.23-1.87a.93.93,0,0,1,.93,1.62l-3.22,1.86C42.79,39.5,42.62,39.5,42.45,39.5Z" transform="translate(16.39 -11.33)"/><path class="cls-1" d="M48.9,46a.62.62,0,0,1-.51-.17,1,1,0,0,1-.34-1.27l1.87-3.22a.93.93,0,0,1,1.61.93l-1.78,3.22A.93.93,0,0,1,48.9,46Z" transform="translate(16.39 -11.33)"/><path class="cls-1" d="M57.64,48.33a.93.93,0,0,1-.93-.93V43.66a.94.94,0,0,1,1.87,0V47.4A.89.89,0,0,1,57.64,48.33Z" transform="translate(16.39 -11.33)"/><path class="cls-1" d="M66.47,46a.93.93,0,0,1-.85-.51l-1.87-3.22a.93.93,0,0,1,1.62-.93l1.86,3.22a.94.94,0,0,1-.34,1.27A.6.6,0,0,1,66.47,46Z" transform="translate(16.39 -11.33)"/><path class="cls-1" d="M72.92,39.5a.62.62,0,0,1-.51-.17l-3.23-1.86a.94.94,0,0,1,.94-1.62l3.22,1.87A1,1,0,0,1,73.68,39,.91.91,0,0,1,72.92,39.5Z" transform="translate(16.39 -11.33)"/><path class="cls-1" d="M75.21,30.76H71.48a.93.93,0,1,1,0-1.86h3.73a.93.93,0,0,1,.93.93A.88.88,0,0,1,75.21,30.76Z" transform="translate(16.39 -11.33)"/><path class="cls-1" d="M69.69,23.8a.94.94,0,0,1-.85-.5A1,1,0,0,1,69.18,22l3.23-1.86a.93.93,0,1,1,.93,1.61l-3.22,1.86A.55.55,0,0,1,69.69,23.8Z" transform="translate(16.39 -11.33)"/><path class="cls-1" d="M64.6,18.8a.62.62,0,0,1-.51-.17,1,1,0,0,1-.34-1.28l1.87-3.22a1,1,0,0,1,1.27-.34,1,1,0,0,1,.34,1.27l-1.78,3.23A.93.93,0,0,1,64.6,18.8Z" transform="translate(16.39 -11.33)"/><path class="cls-1" d="M155.8,92.45H136.5A43,43,0,0,1,111.9,85a73.85,73.85,0,0,0-42.7-12.8A1.1,1.1,0,0,1,69,70c.9-.1,23-1.4,44.2,13.2a41.07,41.07,0,0,0,23.3,7.1h19.3a1.1,1.1,0,1,1,0,2.2Z" transform="translate(16.39 -11.33)"/><path class="cls-1" d="M117.2,87.85a1.22,1.22,0,0,1-.9-.4,1.12,1.12,0,0,1,.1-1.6c.2-.2,20-17,50.1-17a1.1,1.1,0,0,1,0,2.2c-29.3,0-48.5,16.3-48.7,16.5S117.4,87.85,117.2,87.85Z" transform="translate(16.39 -11.33)"/><path class="cls-1" d="M108.1,98.25a1.85,1.85,0,0,1-.7-.2C85.7,80.85,69.2,83.25,69,83.25a1.12,1.12,0,0,1-.4-2.2c.7-.1,17.7-2.6,40.1,15.1a1.13,1.13,0,0,1,.2,1.6A1,1,0,0,1,108.1,98.25Z" transform="translate(16.39 -11.33)"/><path class="cls-1" d="M136.5,92.45a.91.91,0,0,1-.7-.3,1.12,1.12,0,0,1-.1-1.6c.4-.4,8.9-10.3,30.9-10.6h0a1.1,1.1,0,1,1,0,2.2c-21,.2-29.1,9.7-29.2,9.8A1.06,1.06,0,0,1,136.5,92.45Z" transform="translate(16.39 -11.33)"/><path class="cls-1" d="M158,70.85a.91.91,0,0,1-.7-.3,1.12,1.12,0,0,1-.1-1.6l20.7-23.6a8.26,8.26,0,0,1,12.4,0l19.2,23.4a1.14,1.14,0,0,1-1.8,1.4l-19.1-23.3a6.06,6.06,0,0,0-9,0l-20.7,23.6A1,1,0,0,1,158,70.85Z" transform="translate(16.39 -11.33)"/><path class="cls-1" d="M-16.39,91a1.11,1.11,0,0,1,1.1-1.1H4a41.07,41.07,0,0,0,23.3-7.1c21.2-14.6,43.3-13.3,44.2-13.2a1.1,1.1,0,0,1-.2,2.2,73.85,73.85,0,0,0-42.7,12.8A43,43,0,0,1,4,92.07h-19.3A1.11,1.11,0,0,1-16.39,91Z" transform="translate(16.39 -11.33)"/><path class="cls-1" d="M217.4,87.55c-.2-.2-19.4-16.5-48.7-16.5a1.1,1.1,0,0,1,0-2.2c30.1,0,49.9,16.8,50.1,17a1.12,1.12,0,0,1,.1,1.6,1.22,1.22,0,0,1-.9.4C217.8,87.85,217.5,87.85,217.4,87.55Z" transform="translate(16.39 -11.33)"/><path class="cls-1" d="M189.65,72a1.12,1.12,0,0,0,1.1,1.12h19.3a40.4,40.4,0,0,1,23.3,7.27c21.2,14.95,43.3,13.62,44.2,13.52a1.14,1.14,0,0,0,1-1.23,1.13,1.13,0,0,0-1.2-1,72.49,72.49,0,0,1-42.7-13.1,42.32,42.32,0,0,0-24.6-7.68h-19.3A1.12,1.12,0,0,0,189.65,72Z" transform="translate(16.39 -11.33)"/><path class="cls-1" d="M278,37.06h-6.54A5.11,5.11,0,0,1,278.79,33l.83.41.19-.91a7.31,7.31,0,0,1,14.44,2.17l-.17,1.49,1.26-.81a4,4,0,0,1,5.86,1.72H286.11v1.42h18V37.06h-1.36a5.44,5.44,0,0,0-7-3.48,8.74,8.74,0,0,0-17.07-2.2A6.55,6.55,0,0,0,270,37.06h-1.84v1.42H278Z" transform="translate(16.39 -11.33)"/><rect class="cls-1" x="295.77" y="25.73" width="4.97" height="1.42"/><path class="cls-1" d="M307.74,91.74h-4.13V88.1l3.27-1.5V85.21h.83v-.65h-.83v-.88h.83V83h-.83V82.5s0-.09,0-.14l.7-.7-.46-.46-.53.52-.05-.06a1.24,1.24,0,0,0-.53-.31v-.87h-.65v.88a1.26,1.26,0,0,0-.53.33l-.53-.53-.46.46.68.68a1.36,1.36,0,0,0,0,.2v2.57l-.88.4v-5h1v-.65h-1v-.13a1.15,1.15,0,0,0-.06-.37l.75-.75-.46-.46-.64.65a1.19,1.19,0,0,0-.61-.31v-1h-.65v1a1.19,1.19,0,0,0-.61.31l-.64-.65-.46.46.75.75a1.16,1.16,0,0,0-.07.37v.13H300v.65h.92v7.14l-.88-.4V84.64a.68.68,0,0,0,0-.2l.69-.68-.46-.46-.53.53a1.17,1.17,0,0,0-.53-.33v-.89h-.65v.88a1.24,1.24,0,0,0-.53.31l-.06.06-.52-.52-.46.45.7.7c0,.05,0,.1,0,.15v.53h-.83v.65h.83v.88h-.83v.65h.83v1.39l3.26,1.49v1.51H285.65V85.37l3.58-1.63V82.19h.95v-.64h-.95v-1h.95v-.65h-.95v-.61c0-.06,0-.12,0-.17l.78-.78-.46-.46-.6.6a.73.73,0,0,0-.08-.09,1.24,1.24,0,0,0-.6-.34V77h-.64v1a1.38,1.38,0,0,0-.62.38l-.6-.6-.46.45.76.77a1.64,1.64,0,0,0,0,.23v2.83l-1,.47V77h1.08v-.65h-1.08v-.09a1.63,1.63,0,0,0-.09-.49l.85-.85-.45-.46-.76.76a1.42,1.42,0,0,0-.68-.37V73.74h-.64v1.11a1.46,1.46,0,0,0-.68.37l-.75-.75-.46.45.85.85a1.63,1.63,0,0,0-.09.49v.09H281.7V77h1.05v7.91l-1-.47V81.6a1.79,1.79,0,0,0,0-.23l.76-.76-.45-.46-.61.61a1.22,1.22,0,0,0-.61-.38v-1h-.65v1a1.12,1.12,0,0,0-.59.33l-.09.09-.6-.6-.45.46.78.78a1,1,0,0,0,0,.17v.61h-.94v.65h.94v1h-.94v.65h.94v1.54l3.58,1.64v4h-4.9v.65h29.89Zm-2.6-6.25v-3a.55.55,0,0,1,.94-.38.54.54,0,0,1,.15.38v3.69l-2.62,1.19v-1.2Zm-3-6.42h.16a.63.63,0,0,1,.63.62V91.63h-1.41V79.69A.62.62,0,0,1,302.18,79.07Zm-3.89,9.26V84.64a.54.54,0,0,1,.17-.39.53.53,0,0,1,.38-.16.55.55,0,0,1,.55.55v3l1.52.7v1.2Zm-11-5.82V79.26a.63.63,0,0,1,.63-.63.6.6,0,0,1,.44.18.64.64,0,0,1,.19.45v4.06l-2.94,1.34V83.28Zm-7.51,3.16V81.6a.63.63,0,0,1,.18-.45.67.67,0,0,1,.45-.18.63.63,0,0,1,.63.63v3.25l1.67.77V87Zm3.58-9.41a.8.8,0,0,1,1.6,0V91.74h-1.6Z" transform="translate(16.39 -11.33)"/><polygon class="cls-1" points="336.87 30.46 338.35 28.99 339.31 29.95 340.32 28.95 338.35 26.97 336.87 28.45 335.4 26.97 333.43 28.95 334.44 29.95 335.4 28.99 336.87 30.46"/><polygon class="cls-1" points="343.19 20.65 340.92 22.92 341.93 23.93 343.19 22.66 344.95 24.43 346.72 22.66 347.98 23.93 348.99 22.92 346.72 20.65 344.95 22.42 343.19 20.65"/><polygon class="cls-1" points="337.82 15.01 335.69 17.14 333.57 15.01 330.93 17.64 331.94 18.65 333.57 17.02 335.69 19.15 337.82 17.02 339.44 18.65 340.45 17.64 337.82 15.01"/><path class="cls-1" d="M243.9,27.65h-6.54a5.12,5.12,0,0,1,7.34-4.07l.83.41.19-.91a7.31,7.31,0,0,1,14.44,2.17L260,26.74l1.26-.81a4,4,0,0,1,5.86,1.72H252v1.42h18V27.65h-1.36a5.44,5.44,0,0,0-7-3.48A8.74,8.74,0,0,0,244.54,22a6.55,6.55,0,0,0-8.61,5.68H234.1v1.42h9.8Z" transform="translate(16.39 -11.33)"/><rect class="cls-1" x="261.68" y="16.32" width="4.97" height="1.42"/><path class="cls-1" d="M615,73.19H540.35c-34.83,0-67.72,2.4-95.2,6.92C365.82,93.21,280.68,91.92,279.9,91.92c-2.32,0-4.64.36-4.64.92S276.81,94,279.13,94c3.48.09,89,1.29,171.05-12.18,25.93-4.24,57.27-6.55,90.17-6.55H615c2.32,0,4.25-.46,4.25-1S617.36,73.19,615,73.19Z" transform="translate(16.39 -11.33)"/><path class="cls-1" d="M328.56,91.83a1.11,1.11,0,0,1,1.1-1.1H349a41.07,41.07,0,0,0,23.3-7.1c21.2-14.6,43.3-13.3,44.2-13.2a1.1,1.1,0,1,1-.2,2.2,73.85,73.85,0,0,0-42.7,12.8,43,43,0,0,1-24.6,7.5h-19.3A1.11,1.11,0,0,1,328.56,91.83Z" transform="translate(16.39 -11.33)"/><text class="cls-2" transform="translate(116.61 16.81)"><tspan class="cls-3">c</tspan><tspan class="cls-4" x="8.22" y="0">r</tspan><tspan x="14.65" y="0">eated by: JGA</tspan></text></svg>