<svg width="144" height="176" viewBox="0 0 144 176" fill="none" xmlns="http://www.w3.org/2000/svg">
<path fill-rule="evenodd" clip-rule="evenodd" d="M29.6098 0.139893C29.4644 10.282 35.06 21.3843 45.2736 36.9421C49.8004 54.5642 56.7179 68.7092 65.9536 84.4481C63.2317 103.836 68.4144 123.695 76.7263 142.639C74.5685 146.622 73.3055 149.463 72.9586 153.705C65.6883 159.87 60.1173 167.132 55.9693 175.31C46.9515 173.474 38.7031 170.577 31.1217 166.76C25.5654 161.154 21.2946 154.752 19.2964 147.96C28.0192 145.73 37.0104 141.456 44.6523 134.668C33.0365 137.345 22.1773 137.578 12.7591 134.504C5.15093 123.774 1.4641 111.635 2.72765 99.4404C12.6544 107.273 23.9102 111.923 36.8117 110.073C22.732 103.181 9.97698 94.3155 0.53721 82.1443C-0.120772 70.5131 2.85317 60.4108 7.51164 51.5192C16.0272 64.1675 27.2875 73.6518 38.878 81.6213C27.4047 70.105 18.2774 55.9172 11.5691 40.6529C14.36 24.964 20.3519 11.6958 29.6098 0.139893Z" fill="url(#paint0_linear)"/>
<path fill-rule="evenodd" clip-rule="evenodd" d="M114.171 0.139893C114.316 10.282 108.721 21.3843 98.5072 36.9421C93.9805 54.5642 87.0629 68.7092 77.8273 84.4481C79.9639 99.6664 77.2302 115.175 71.9356 130.304C71.2288 132.322 71.5914 154.364 71.9685 154.698C78.6817 160.646 83.8844 167.567 87.8115 175.31C96.8294 173.474 105.078 170.577 112.659 166.76C118.215 161.154 122.486 154.752 124.485 147.96C115.762 145.73 106.771 141.456 99.1285 134.668C110.744 137.345 121.604 137.578 131.022 134.504C138.63 123.774 142.317 111.635 141.053 99.4404C131.126 107.273 119.871 111.923 106.969 110.073C121.049 103.181 133.804 94.3155 143.244 82.1443C143.902 70.5131 140.928 60.4108 136.269 51.5192C127.754 64.1675 116.493 73.6518 104.903 81.6213C116.376 70.105 125.503 55.9172 132.212 40.6529C129.421 24.964 123.429 11.6958 114.171 0.139893Z" fill="url(#paint1_linear)"/>
<defs>
<linearGradient id="paint0_linear" x1="72" y1="83.5" x2="78.1015" y2="154.979" gradientUnits="userSpaceOnUse">
<stop stop-color="#6F00F6"/>
<stop offset="1" stop-color="#F7DCBF"/>
</linearGradient>
<linearGradient id="paint1_linear" x1="72" y1="83.5" x2="78.1015" y2="154.979" gradientUnits="userSpaceOnUse">
<stop stop-color="#6F00F6"/>
<stop offset="1" stop-color="#F7DCBF"/>
</linearGradient>
</defs>
</svg>
