<?xml version="1.0" encoding="UTF-8" standalone="no"?>
<!-- Created with Inkscape (http://www.inkscape.org/) -->

<svg
   version="1.1"
   id="svg2"
   width="2500"
   height="2500"
   viewBox="0 0 2500 2500"
   sodipodi:docname="favicon.svg"
   inkscape:version="1.3.2 (091e20e, 2023-11-25, custom)"
   xmlns:inkscape="http://www.inkscape.org/namespaces/inkscape"
   xmlns:sodipodi="http://sodipodi.sourceforge.net/DTD/sodipodi-0.dtd"
   xmlns="http://www.w3.org/2000/svg"
   xmlns:svg="http://www.w3.org/2000/svg">
  <defs
     id="defs6">
    <clipPath
       clipPathUnits="userSpaceOnUse"
       id="clipPath16">
      <path
         d="M 0,3000 H 3000 V 0 H 0 Z"
         id="path14" />
    </clipPath>
  </defs>
  <sodipodi:namedview
     id="namedview4"
     pagecolor="#ffffff"
     bordercolor="#000000"
     borderopacity="0.25"
     inkscape:showpageshadow="2"
     inkscape:pageopacity="0.0"
     inkscape:pagecheckerboard="0"
     inkscape:deskcolor="#d1d1d1"
     inkscape:zoom="0.191"
     inkscape:cx="646.59686"
     inkscape:cy="1267.0157"
     inkscape:window-width="1920"
     inkscape:window-height="974"
     inkscape:window-x="-11"
     inkscape:window-y="-11"
     inkscape:window-maximized="1"
     inkscape:current-layer="g8" />
  <g
     id="g8"
     inkscape:groupmode="layer"
     inkscape:label="Black Logo"
     transform="matrix(1.3333333,0,0,-1.3333333,-1348.6788,3686.1047)">
    <circle
       style="opacity:1;fill:#7161ef;fill-opacity:1;stroke-width:0.747265"
       id="path1"
       cx="1949.0092"
       cy="-1827.0786"
       r="937.5"
       transform="scale(1,-1)" />
    <g
       id="g10"
       transform="matrix(0.68739581,0,0,0.68739581,917.91544,795.98478)"
       style="fill:#ffffff;fill-opacity:1">
      <g
         id="g12"
         clip-path="url(#clipPath16)"
         style="fill:#ffffff;fill-opacity:1">
        <g
           id="g18"
           transform="translate(1346.2517,1554.2169)"
           style="fill:#ffffff;fill-opacity:1">
          <path
             d="m 0,0 130.06,-249.591 c 10.037,-19.261 37.601,-19.248 47.62,0.022 L 307.508,0.143 c 5.404,10.394 3.443,23.091 -4.844,31.371 L 172.659,161.398 c -10.487,10.477 -27.482,10.47 -37.96,-0.018 L 4.815,31.376 C -3.465,23.088 -5.414,10.389 0,0"
             style="fill:#ffffff;fill-opacity:1;fill-rule:nonzero;stroke:none"
             id="path20" />
        </g>
        <g
           id="g22"
           transform="translate(2331.126,1636.3832)"
           style="fill:#ffffff;fill-opacity:1">
          <path
             d="m 0,0 c -7.602,75.162 -22.733,145.241 -47.597,216.6 -0.015,0.047 -0.083,0.136 -0.188,0.255 -0.577,0.65 -1.137,1.325 -1.624,2.044 -1.454,2.147 -3.441,3.791 -5.737,4.997 -0.152,0.166 -0.5,0.49 -0.522,0.554 -3.141,1.07 -5.962,1.751 -8.977,1.28 -2.818,-0.439 -5.222,-1.725 -7.239,-3.45 -0.831,-0.711 -1.568,-1.528 -2.261,-2.375 -31.328,-38.325 -64.38,-72.169 -104.531,-107.871 -64.053,-56.97 -131.388,-109.761 -202.012,-158.374 -11.175,-7.673 -30.107,-22.595 -46.591,-32.115 -0.631,-0.358 -1.205,-0.291 -1.727,0.203 -0.738,0.696 -0.797,1.389 -0.178,2.078 10.527,11.62 23.936,23.495 34.759,35.54 28.574,31.759 57.284,63.174 83.426,96.859 13.893,17.916 27.727,35.883 41.499,53.902 37.747,49.448 73.141,100.48 106.21,153.081 9.34,14.855 18.504,29.828 27.47,44.935 12.42,20.929 22.306,38.719 29.656,53.368 3.132,6.245 4.221,13.21 3.269,20.891 -5.992,48.414 -16.464,95.849 -31.414,142.301 -30.7,95.441 -72.137,185.801 -123.345,271.68 -0.267,0.448 -0.505,0.914 -0.747,1.376 -2.67,5.119 -7.894,8.507 -13.783,8.432 0,0.002 0,0.011 0,0.011 0,0 -10.043,0.432 -15.393,-7.749 -0.047,-0.044 -0.101,-0.076 -0.135,-0.137 l -0.496,-0.9 c -0.009,-0.017 -0.02,-0.033 -0.03,-0.051 h 0.002 L -529.417,359.807 -681.572,83.763 c -4.737,-8.593 -3.221,-19.283 3.717,-26.221 l 85.073,-85.074 c 13.261,-13.26 16.39,-33.588 7.732,-50.223 l -188.469,-362.09 c -12.133,-23.31 -34.865,-34.973 -57.607,-34.993 -22.742,0.02 -45.474,11.683 -57.607,34.993 l -188.469,362.09 c -8.658,16.635 -5.528,36.963 7.732,50.223 l 85.073,85.074 c 6.938,6.938 8.454,17.628 3.717,26.221 l -152.155,276.044 -241.705,438.509 c -0.035,0.064 -0.092,0.098 -0.141,0.143 -5.351,8.174 -15.389,7.743 -15.389,7.743 0,0 0,-0.009 0,-0.011 -5.888,0.074 -11.111,-3.314 -13.781,-8.432 -0.242,-0.462 -0.48,-0.928 -0.747,-1.376 -51.208,-85.879 -92.645,-176.239 -123.345,-271.68 -14.95,-46.452 -25.422,-93.887 -31.414,-142.301 -0.952,-7.681 0.137,-14.646 3.269,-20.891 7.35,-14.649 17.236,-32.439 29.656,-53.368 8.966,-15.107 18.13,-30.08 27.47,-44.935 33.069,-52.601 68.463,-103.633 106.21,-153.081 13.772,-18.019 27.606,-35.986 41.499,-53.902 26.142,-33.685 54.852,-65.1 83.426,-96.859 10.823,-12.045 24.232,-23.92 34.759,-35.54 0.619,-0.689 0.56,-1.382 -0.178,-2.078 -0.522,-0.494 -1.096,-0.561 -1.727,-0.203 -16.484,9.52 -35.416,24.442 -46.591,32.115 -70.624,48.613 -137.959,101.404 -202.012,158.374 -40.151,35.702 -73.203,69.546 -104.531,107.871 -0.693,0.847 -1.43,1.664 -2.261,2.375 -2.017,1.725 -4.421,3.011 -7.239,3.45 -3.015,0.471 -5.836,-0.21 -8.977,-1.28 -0.021,-0.064 -0.37,-0.388 -0.522,-0.554 -2.296,-1.206 -4.283,-2.85 -5.737,-4.997 -0.487,-0.719 -1.047,-1.394 -1.624,-2.044 -0.105,-0.119 -0.173,-0.208 -0.188,-0.255 -24.864,-71.359 -39.995,-141.438 -47.597,-216.6 -3.118,-30.896 -4.657,-62.776 0.18,-93.595 0.89,-5.557 3.17,-10.488 6.838,-14.79 11.117,-12.98 22.937,-25.293 35.459,-36.94 63.208,-58.72 130.714,-112.009 202.525,-159.865 43.852,-29.226 81.413,-51.741 112.68,-67.549 19.021,-9.619 38.627,-17.777 59.125,-24.714 0.166,-0.265 0.09,-0.614 -0.176,-0.78 -16.317,-11.119 -53.794,-11.529 -73.134,-10.345 -33.086,2.009 -65.67,7.255 -97.75,15.739 -56.34,14.911 -109.792,36.895 -160.357,65.948 -11.677,6.705 -20.27,11.73 -31.715,18.752 -1.699,1.04 -3.618,1.785 -5.711,2.111 -8.486,1.325 -16.439,-4.481 -17.762,-12.967 -0.212,-1.354 -0.071,-2.656 -0.021,-4.051 0.017,-0.47 0.04,-0.939 0.09,-1.407 11.198,-105.736 44.054,-213.51 97.701,-305.477 5.793,-9.92 26.927,-46.964 36.939,-49.237 45.252,-10.271 91.621,-15.433 137.986,-16.536 32.334,-0.769 64.703,0.426 96.923,3.198 42.321,3.641 85.374,10.196 124.142,28.424 6.52,3.066 12.808,6.474 18.922,10.27 1.684,1.045 3.351,2.117 5.001,3.215 0.82,0.546 1.635,1.098 2.446,1.656 0.309,0.213 0.621,0.419 0.941,0.615 0.299,0.183 0.636,0.449 1.001,0.449 0.558,0 1.01,-0.453 1.01,-1.01 0,-0.179 -0.06,-0.339 -0.135,-0.491 -10.096,-17.566 -20.192,-35.133 -30.288,-52.699 -17.508,-30.465 -36.01,-60.581 -52.475,-91.612 -6.727,-12.68 -9.988,-26.918 -9.988,-41.285 0,-15.402 3.861,-30.707 11.236,-44.234 4.087,-7.498 9.284,-14.199 14.975,-20.506 l 0.055,-0.055 c 5.974,-6.607 12.496,-12.78 18.902,-18.954 l 149.177,-149.591 c 0.588,-0.59 1.204,-1.144 1.856,-1.663 2.195,-1.748 7.315,-5.575 11.457,-6.756 3.855,-1.443 8.025,-2.24 12.385,-2.24 13.321,0 24.732,7.757 31.549,18.881 l 91.656,158.554 c 1.015,1.758 2.213,3.384 3.562,4.865 2.415,2.651 5.326,4.82 8.633,6.348 4.378,2.021 9.204,2.958 14.021,3.16 0.421,0.018 0.843,0.021 1.265,0.024 0.422,-0.003 0.844,-0.006 1.265,-0.024 4.818,-0.202 9.643,-1.139 14.021,-3.16 3.307,-1.528 6.218,-3.697 8.633,-6.348 1.349,-1.481 2.547,-3.107 3.562,-4.865 l 91.656,-158.554 c 6.817,-11.124 18.228,-18.881 31.549,-18.881 4.36,0 8.53,0.797 12.385,2.24 4.142,1.181 9.262,5.008 11.457,6.756 0.652,0.519 1.268,1.073 1.856,1.663 l 149.177,149.591 c 6.406,6.174 12.928,12.347 18.902,18.954 l 0.055,0.055 c 5.691,6.307 10.888,13.008 14.975,20.506 7.375,13.527 11.237,28.832 11.237,44.234 0,14.367 -3.262,28.605 -9.989,41.285 -16.465,31.031 -34.967,61.147 -52.475,91.612 -10.096,17.566 -20.192,35.133 -30.287,52.699 -0.076,0.152 -0.136,0.312 -0.136,0.491 0,0.557 0.452,1.01 1.01,1.01 0.365,0 0.702,-0.266 1.001,-0.449 0.32,-0.196 0.632,-0.402 0.941,-0.615 0.811,-0.558 1.626,-1.11 2.446,-1.656 1.65,-1.098 3.317,-2.17 5.001,-3.215 6.114,-3.796 12.402,-7.204 18.922,-10.27 38.768,-18.228 81.822,-24.783 124.142,-28.424 32.22,-2.772 64.589,-3.967 96.924,-3.198 46.364,1.103 92.733,6.265 137.985,16.536 10.012,2.273 31.146,39.317 36.939,49.237 53.647,91.967 86.503,199.741 97.701,305.477 0.05,0.468 0.073,0.937 0.09,1.407 0.05,1.395 0.191,2.697 -0.021,4.051 -1.323,8.486 -9.276,14.292 -17.762,12.967 -2.093,-0.326 -4.012,-1.071 -5.711,-2.111 -11.445,-7.022 -20.038,-12.047 -31.715,-18.752 -50.565,-29.053 -104.017,-51.037 -160.357,-65.948 -32.08,-8.484 -64.664,-13.73 -97.75,-15.739 -19.34,-1.184 -56.816,-0.774 -73.134,10.345 -0.266,0.166 -0.342,0.515 -0.176,0.78 20.498,6.937 40.104,15.095 59.125,24.714 31.267,15.808 68.828,38.323 112.681,67.549 71.81,47.856 139.316,101.145 202.524,159.865 12.522,11.647 24.342,23.96 35.459,36.94 3.668,4.302 5.948,9.233 6.838,14.79 C 4.657,-62.776 3.118,-30.896 0,0"
             style="fill:#ffffff;fill-opacity:1;fill-rule:nonzero;stroke:none"
             id="path24" />
        </g>
      </g>
    </g>
  </g>
</svg>
