<svg width="145" height="45" viewBox="0 0 145 45" fill="none" xmlns="http://www.w3.org/2000/svg">
<path d="M11.5555 21.5358L24.4739 44.8722H18.0444L8.04311 26.8936L5.72137 30.525V44.8722H0.125389V28.9772H0.0658569L0.125389 28.8582V0.997314H5.72137V20.1665L18.1635 0.997314H24.8906L11.5555 21.5358Z" fill="#F7DCBF"/>
<path d="M26.8086 13.499C26.8086 9.62941 27.6421 6.59329 29.309 4.45016C29.9638 3.67624 30.8568 2.8428 32.1665 2.12842C33.4762 1.47357 35.0835 0.997314 37.2267 0.997314C41.513 0.997314 43.8942 2.8428 45.1444 4.45016C46.8113 6.59329 47.6447 9.62941 47.6447 13.499V32.3705C47.6447 36.2401 46.8113 39.2762 45.1444 41.4193C43.8942 43.0267 41.513 44.8722 37.2267 44.8722C32.9999 44.8722 30.5591 43.0267 29.309 41.4193C27.6421 39.2762 26.8086 36.2401 26.8086 32.3705V13.499ZM32.4046 32.3705C32.4046 35.8829 33.1785 37.5498 34.1906 38.3832C35.2026 39.2167 36.3337 39.2762 37.2267 39.2762C38.0006 39.2762 39.2507 39.2167 40.2628 38.3832C41.2748 37.5498 42.0487 35.8829 42.0487 32.3705V13.499C42.0487 10.1057 41.2748 8.31972 40.2628 7.48627C39.2507 6.65283 38.0006 6.65283 37.2267 6.65283C36.3337 6.65283 35.2026 6.65283 34.1906 7.48627C33.1785 8.31972 32.4046 10.1057 32.4046 13.499V32.3705Z" fill="#F7DCBF"/>
<path d="M67.2469 44.8722L56.5312 18.321V44.8722H50.9352V0.997314H55.6382L66.354 27.5485V0.997314H72.0095V44.8722H67.2469Z" fill="#F7DCBF"/>
<path d="M76.2246 44.9317V1.05685H84.9757C92.5363 1.05685 96.1082 5.70032 96.1082 13.7371V32.1919C96.1082 40.2287 92.5363 44.9317 84.9757 44.9317H76.2246ZM81.8206 6.65283V39.3357H84.9757C86.4045 39.3357 87.7737 39.1571 88.7858 38.2046C89.7383 37.2521 90.4527 35.4662 90.4527 32.1919V13.7371C90.4527 10.4629 89.7383 8.67691 88.7858 7.7244C87.7737 6.77189 86.4045 6.65283 84.9757 6.65283H81.8206Z" fill="#F7DCBF"/>
<path d="M99.5373 13.499C99.5373 9.62941 100.371 6.59329 102.038 4.45016C102.692 3.67624 103.585 2.8428 104.895 2.12842C106.205 1.47357 107.812 0.997314 109.955 0.997314C114.242 0.997314 116.623 2.8428 117.873 4.45016C119.54 6.59329 120.373 9.62941 120.373 13.499V32.3705C120.373 36.2401 119.54 39.2762 117.873 41.4193C116.623 43.0267 114.242 44.8722 109.955 44.8722C105.729 44.8722 103.288 43.0267 102.038 41.4193C100.371 39.2762 99.5373 36.2401 99.5373 32.3705V13.499ZM105.133 32.3705C105.133 35.8829 105.907 37.5498 106.919 38.3832C107.931 39.2167 109.062 39.2762 109.955 39.2762C110.729 39.2762 111.979 39.2167 112.991 38.3832C114.004 37.5498 114.777 35.8829 114.777 32.3705V13.499C114.777 10.1057 114.004 8.31972 112.991 7.48627C111.979 6.65283 110.729 6.65283 109.955 6.65283C109.062 6.65283 107.931 6.65283 106.919 7.48627C105.907 8.31972 105.133 10.1057 105.133 13.499V32.3705Z" fill="#F7DCBF"/>
<path d="M144.024 44.8722H138.368V31.8943C138.368 28.0247 136.523 26.1197 132.772 26.1197H129.26V44.8722H123.664V0.997314H132.772C140.333 0.997314 143.905 5.34313 143.905 13.499C143.905 17.5471 143.012 20.6428 141.285 22.7264C141.226 22.7859 141.107 22.905 141.047 23.024C140.928 23.1431 140.809 23.2622 140.69 23.3217C142.833 25.4053 144.024 28.2628 144.024 31.8943V44.8722ZM129.26 20.4642H132.772C134.261 20.4642 135.332 20.2856 135.927 19.9284C136.463 19.5712 136.82 19.2736 136.999 19.095C137.892 17.9639 138.309 16.1184 138.309 13.499C138.309 10.5819 137.832 8.8555 136.939 7.84346C135.987 6.89095 134.618 6.65283 132.772 6.65283H129.26V20.4642Z" fill="#F7DCBF"/>
</svg>
