<svg width="14" height="16" viewBox="0 0 14 16" fill="none" xmlns="http://www.w3.org/2000/svg">
<path d="M4.10111 14.2339C4.28169 14.2339 4.42807 14.0863 4.42807 13.9043C4.42807 13.7223 4.28169 13.5747 4.10111 13.5747C3.92054 13.5747 3.77415 13.7223 3.77415 13.9043C3.77415 14.0863 3.92054 14.2339 4.10111 14.2339Z" fill="#D4B410"/>
<path d="M1.22588 4.98438L1.08121 5.27955L0.758194 5.32689L0.992111 5.55665L0.93684 5.88108L1.22588 5.7279L1.51492 5.88108L1.4598 5.55665L1.69357 5.32689L1.37026 5.27955L1.22588 4.98438Z" fill="#D4B410"/>
<path d="M3.91066 2.51745L4.11045 2.41176L4.3098 2.51745L4.27174 2.29343L4.43303 2.13481L4.21005 2.10218L4.11045 1.89844L4.01055 2.10218L3.78743 2.13481L3.94887 2.29343L3.91066 2.51745Z" fill="#D4B410"/>
<path d="M12.3619 10.9018L12.5232 11.0604L12.4851 11.2843L12.6846 11.1786L12.8842 11.2843L12.8462 11.0604L13.0075 10.9018L12.7843 10.869L12.6846 10.6653L12.585 10.869L12.3619 10.9018Z" fill="#D4B410"/>
<path d="M12.6846 2.97388L12.553 3.3821H12.1272L12.4717 3.6345L12.3401 4.04257L12.6846 3.79032L13.029 4.04257L12.8975 3.6345L13.242 3.3821H12.8163L12.6846 2.97388Z" fill="#D4B410"/>
<path d="M11.5243 2.32931C11.7049 2.32931 11.8513 2.18176 11.8513 1.99974C11.8513 1.81772 11.7049 1.67017 11.5243 1.67017C11.3438 1.67017 11.1974 1.81772 11.1974 1.99974C11.1974 2.18176 11.3438 2.32931 11.5243 2.32931Z" fill="#D4B410"/>
<path d="M12.9087 8.35931C13.0526 8.35931 13.1692 8.24177 13.1692 8.09677C13.1692 7.95177 13.0526 7.83423 12.9087 7.83423C12.7649 7.83423 12.6483 7.95177 12.6483 8.09677C12.6483 8.24177 12.7649 8.35931 12.9087 8.35931Z" fill="#D4B410"/>
<path d="M2.16591 3.76494C2.35607 3.76494 2.51022 3.60955 2.51022 3.41787C2.51022 3.22619 2.35607 3.0708 2.16591 3.0708C1.97575 3.0708 1.82159 3.22619 1.82159 3.41787C1.82159 3.60955 1.97575 3.76494 2.16591 3.76494Z" fill="#D4B410"/>
<path d="M3.1904 13.9076C3.23794 13.9198 3.28592 13.9305 3.33448 13.9403L3.34877 13.8683C3.30152 13.8588 3.25457 13.848 3.20819 13.8364L3.1904 13.9076Z" fill="#D4B410"/>
<path d="M0.98555 11.4521C0.999696 11.5481 1.0188 11.6446 1.04228 11.7388L1.11286 11.7209C1.09011 11.629 1.07145 11.5349 1.05759 11.4414L0.98555 11.4521Z" fill="#D4B410"/>
<path d="M2.64455 13.7102C2.73161 13.7518 2.82188 13.7896 2.91273 13.8224L2.93723 13.7532C2.84871 13.7213 2.76078 13.6844 2.67575 13.6438L2.64455 13.7102Z" fill="#D4B410"/>
<path d="M0.953598 11.0172C0.953598 11.0654 0.954765 11.1135 0.957098 11.1613L1.02987 11.1578C1.02754 11.1112 1.02651 11.0643 1.02651 11.0172C1.02651 10.9692 1.02783 10.9209 1.03016 10.8724L0.957244 10.8689C0.954911 10.9184 0.953598 10.968 0.953598 11.0172Z" fill="#D4B410"/>
<path d="M1.97268 13.1687C1.90283 13.1047 1.83575 13.0368 1.77304 12.9666L1.71893 13.0158C1.78325 13.0878 1.85222 13.1575 1.92354 13.2231L1.97268 13.1687Z" fill="#D4B410"/>
<path d="M1.30347 12.2571C1.26322 12.1711 1.22676 12.0824 1.19526 11.9937L1.12657 12.0185C1.15866 12.1095 1.19613 12.2003 1.23755 12.2885L1.30347 12.2571Z" fill="#D4B410"/>
<path d="M1.43675 12.5085L1.37433 12.5463C1.42377 12.6297 1.47802 12.7116 1.53533 12.7896L1.59395 12.7459C1.53795 12.6697 1.48516 12.5898 1.43675 12.5085Z" fill="#D4B410"/>
<path d="M2.42622 13.509C2.34586 13.4603 2.26667 13.4068 2.19128 13.3501L2.14767 13.409C2.22511 13.4673 2.30634 13.5221 2.38859 13.5719L2.42622 13.509Z" fill="#D4B410"/>
<path d="M0.98642 10.5757L1.05846 10.5864C1.06546 10.5388 1.07377 10.4911 1.08325 10.4434L1.01179 10.429C1.00202 10.4779 0.993566 10.5267 0.98642 10.5757Z" fill="#D4B410"/>
<path d="M13.0712 12.0696L12.9983 12.0681C12.9971 12.1166 12.9946 12.1647 12.9902 12.2123L13.0629 12.2191C13.0672 12.1697 13.07 12.12 13.0712 12.0696Z" fill="#D4B410"/>
<path d="M12.5542 13.4002C12.6259 13.3186 12.6917 13.2308 12.7499 13.1395L12.6884 13.0999C12.6325 13.1879 12.5691 13.2726 12.4995 13.3512L12.5542 13.4002Z" fill="#D4B410"/>
<path d="M12.2739 13.5698C12.1933 13.6364 12.1069 13.697 12.0173 13.7499L12.054 13.8134C12.1472 13.7586 12.2366 13.6958 12.3202 13.6267L12.2739 13.5698Z" fill="#D4B410"/>
<path d="M12.8355 12.8219L12.9025 12.8512C12.9455 12.7514 12.9809 12.6473 13.0078 12.5419L12.9372 12.5237C12.9111 12.6254 12.8769 12.7257 12.8355 12.8219Z" fill="#D4B410"/>
<path d="M11.7356 13.887C11.6384 13.9249 11.5376 13.9552 11.4359 13.9771L11.4511 14.049C11.5565 14.0263 11.661 13.9949 11.7619 13.9555L11.7356 13.887Z" fill="#D4B410"/>
<path d="M10.9815 14.0203L10.9801 14.0938C10.9942 14.0941 11.0081 14.0942 11.0221 14.0942C11.0577 14.0942 11.0933 14.0933 11.1285 14.0914L11.1249 14.0181C11.0774 14.0206 11.0298 14.0216 10.9815 14.0203Z" fill="#D4B410"/>
<path d="M12.9452 6.24341H12.8723V6.53741H12.9452V6.24341Z" fill="#D4B410"/>
<path d="M12.9452 5.06738H12.8723V5.36138H12.9452V5.06738Z" fill="#D4B410"/>
<path d="M12.9452 6.83154H12.8723V7.12554H12.9452V6.83154Z" fill="#D4B410"/>
<path d="M12.9452 5.65527H12.8723V5.94928H12.9452V5.65527Z" fill="#D4B410"/>
<path d="M4.02514 10.6345C3.91766 10.7152 3.84679 10.8431 3.84679 10.9884C3.84679 11.2321 4.04366 11.4304 4.2856 11.4304C4.52739 11.4304 4.72427 11.2321 4.72427 10.9884C4.72427 10.7445 4.52739 10.5462 4.2856 10.5462C4.21997 10.5462 4.15814 10.5618 4.10214 10.5881L4.10477 10.5865C3.50262 9.57364 3.8675 8.87392 4.02952 8.64283C4.18527 8.84202 4.42633 8.97064 4.6967 8.97064C4.7196 8.97064 4.74235 8.96888 4.76481 8.96726C5.00718 9.80061 5.69566 10.443 6.55156 10.6119C6.27943 10.7693 6.09524 11.0645 6.09524 11.4029H6.25974C6.25974 10.9915 6.59166 10.6566 6.99999 10.6566C7.40833 10.6566 7.74024 10.9915 7.74024 11.4029H7.90474C7.90474 11.0645 7.72056 10.7693 7.44843 10.6119C8.30433 10.443 8.99281 9.80046 9.23518 8.96726C9.25764 8.96903 9.28039 8.97064 9.30328 8.97064C9.57337 8.97064 9.81385 8.84246 9.96974 8.64386C10.1291 8.87701 10.4907 9.58481 9.89522 10.5865L9.8977 10.5879C9.84185 10.5618 9.78001 10.5462 9.71439 10.5462C9.4726 10.5462 9.27572 10.7446 9.27572 10.9884C9.27572 11.2321 9.4726 11.4304 9.71439 11.4304C9.95633 11.4304 10.1532 11.2321 10.1532 10.9884C10.1532 10.8431 10.0825 10.7152 9.97485 10.6345L10.0362 10.6716C10.7276 9.50837 10.2146 8.69252 10.0637 8.49392C10.1204 8.37912 10.1531 8.25049 10.1531 8.11393C10.1531 7.64162 9.7717 7.25721 9.30314 7.25721C9.2311 7.25721 9.16139 7.26721 9.0946 7.28441C8.72768 6.52457 7.96774 5.99375 7.08195 5.96244V4.48215C7.15837 4.49773 7.23143 4.53507 7.29064 4.59475C7.4512 4.75645 7.4512 5.01943 7.29064 5.18113L7.40687 5.29829C7.63145 5.07191 7.63145 4.70382 7.40687 4.47759C7.18243 4.25121 6.81697 4.25136 6.59268 4.47759C6.36824 4.70382 6.36824 5.07191 6.59268 5.29829L6.70891 5.18113C6.54849 5.01943 6.54849 4.7563 6.70891 4.59475C6.76812 4.53507 6.84118 4.49773 6.91774 4.48215V5.96229C6.03195 5.9936 5.27202 6.52442 4.9051 7.28426C4.83831 7.26721 4.7686 7.25707 4.69656 7.25707C4.228 7.25707 3.84664 7.64132 3.84664 8.11378C3.84664 8.25034 3.87945 8.37912 3.93604 8.49378C3.78525 8.69237 3.27206 9.50822 3.96345 10.6714L4.02514 10.6345ZM7.82264 7.33983C8.06458 7.33983 8.26145 7.53828 8.26145 7.78215C8.26145 8.02602 8.06458 8.22447 7.82264 8.22447C7.5807 8.22447 7.38383 8.02602 7.38383 7.78215C7.38383 7.53828 7.58056 7.33983 7.82264 7.33983ZM6.17735 7.33983C6.41929 7.33983 6.61616 7.53828 6.61616 7.78215C6.61616 8.02602 6.41929 8.22447 6.17735 8.22447C5.93541 8.22447 5.73854 8.02602 5.73854 7.78215C5.73854 7.53828 5.93541 7.33983 6.17735 7.33983Z" fill="#D4B410"/>
<path d="M7.05484 12.7295C7.28161 12.7295 7.46609 12.5435 7.46609 12.315V11.4581C7.46609 11.2295 7.28146 11.0437 7.05484 11.0437H6.94517C6.7184 11.0437 6.53392 11.2297 6.53392 11.4581V12.315C6.53392 12.5435 6.71855 12.7295 6.94517 12.7295H7.05484Z" fill="#D4B410"/>
<path d="M5.91427 5.98255C5.62421 5.69017 5.46452 5.3015 5.46452 4.88814C5.46452 4.47463 5.62421 4.08596 5.91427 3.79358C6.20419 3.50134 6.58991 3.34023 7 3.34023C7.41008 3.34023 7.79581 3.50134 8.08573 3.79358C8.68437 4.39701 8.68437 5.37912 8.08573 5.98255L8.20196 6.09971C8.86477 5.4316 8.86477 4.34453 8.20196 3.67642C7.88098 3.35272 7.45398 3.17456 7 3.17456C6.54602 3.17456 6.11902 3.35272 5.79804 3.67642C5.47691 4.00011 5.30002 4.43038 5.30002 4.88814C5.30002 5.34575 5.47691 5.77617 5.79804 6.09971L5.91427 5.98255Z" fill="#D4B410"/>
<path d="M7.81434 5.70886C8.26307 5.25624 8.26307 4.51992 7.81434 4.06731C7.59675 3.84813 7.30757 3.72729 6.99986 3.72729C6.69244 3.72729 6.40311 3.84798 6.18567 4.06731C5.96823 4.28663 5.84836 4.57813 5.84836 4.88815C5.84836 5.19818 5.96809 5.48968 6.18567 5.70886L6.3019 5.5917C6.11552 5.40368 6.01286 5.15378 6.01286 4.88801C6.01286 4.62223 6.11552 4.37233 6.3019 4.18432C6.48827 3.99645 6.73634 3.89296 6.99986 3.89296C7.26382 3.89296 7.51159 3.99645 7.69811 4.18432C8.08282 4.5724 8.08282 5.20362 7.69811 5.5917L7.81434 5.70886Z" fill="#D4B410"/>
</svg>
