<svg height='100px' width='100px'  fill="#f7dcbf" xmlns="http://www.w3.org/2000/svg" xmlns:xlink="http://www.w3.org/1999/xlink" version="1.1" x="0px" y="0px" viewBox="0 0 512 512" enable-background="new 0 0 512 512" xml:space="preserve"><g><path d="M435.15,130.647c-9.966,0-18.073,8.081-18.073,18.013c0,8.588,6.028,15.782,14.073,17.609v106.3   c-5.479-3.098-11.875-5.095-18.761-5.626v-50.024c2.145-2.179,3.247-4.559,3.247-7.102c0-0.212-0.007-0.426-0.019-0.64   c-0.001-0.022-0.002-0.044-0.003-0.067c-0.005-0.082-0.012-0.164-0.018-0.246c-0.004-0.043-0.007-0.086-0.011-0.129   c-0.007-0.073-0.015-0.146-0.023-0.219c-0.006-0.054-0.013-0.107-0.02-0.161c-0.008-0.067-0.018-0.134-0.027-0.201   c-0.01-0.061-0.02-0.122-0.029-0.183c-0.011-0.062-0.021-0.124-0.033-0.186c-0.013-0.068-0.026-0.137-0.041-0.205   c-0.012-0.056-0.022-0.112-0.036-0.169c-0.018-0.079-0.037-0.158-0.058-0.238c-0.012-0.046-0.022-0.092-0.035-0.139   c-0.029-0.11-0.062-0.22-0.096-0.331c-0.005-0.016-0.009-0.032-0.014-0.048c-0.083-0.263-0.179-0.527-0.287-0.793   c-0.01-0.022-0.02-0.045-0.029-0.067c-0.046-0.109-0.094-0.219-0.145-0.329c-0.013-0.028-0.027-0.057-0.041-0.086   c-0.049-0.104-0.101-0.208-0.154-0.312c-0.016-0.031-0.032-0.062-0.049-0.093c-0.055-0.104-0.112-0.208-0.172-0.311   c-0.017-0.03-0.033-0.059-0.051-0.089c-0.063-0.108-0.13-0.217-0.199-0.326c-0.016-0.024-0.03-0.047-0.045-0.071   c-0.078-0.121-0.16-0.242-0.245-0.364c-0.008-0.011-0.015-0.022-0.022-0.033c-0.483-0.686-1.078-1.375-1.807-2.067   c-0.01-0.01-0.021-0.02-0.031-0.03c-0.135-0.127-0.274-0.255-0.419-0.383c-0.014-0.012-0.028-0.025-0.042-0.038   c-0.145-0.127-0.294-0.254-0.447-0.381c-0.013-0.011-0.026-0.022-0.039-0.033c-0.161-0.133-0.327-0.265-0.499-0.398   c-0.005-0.004-0.011-0.008-0.016-0.012c-1.084-0.836-2.381-1.672-3.926-2.504c-0.014-0.007-0.026-0.014-0.039-0.021   c-0.244-0.13-0.493-0.261-0.749-0.392c-0.018-0.009-0.035-0.018-0.054-0.027c-0.258-0.132-0.523-0.263-0.795-0.394   c-0.011-0.005-0.021-0.011-0.033-0.016c-1.723-0.83-3.709-1.655-5.996-2.47c-0.006-0.002-0.012-0.004-0.018-0.006   c-0.369-0.131-0.746-0.263-1.131-0.394c-0.022-0.007-0.045-0.015-0.067-0.022c-0.377-0.128-0.761-0.255-1.153-0.383   c-0.021-0.006-0.041-0.013-0.062-0.02c-7.614-2.464-18.144-4.821-32.659-6.94l8.595-2.817c1.696-0.555,2.82-2.167,2.754-3.951   l-0.601-16.18c-0.009-0.249-0.041-0.491-0.094-0.727c-0.365-1.642-1.738-2.913-3.462-3.104l-28.471-3.169   c-0.951-4.085-2.183-8.071-3.681-11.909l21.635-18.689c1.309-1.13,1.723-2.949,1.101-4.507c-0.089-0.223-0.198-0.44-0.329-0.649   l-8.598-13.707c-1.055-1.681-3.179-2.336-4.998-1.537l-26.216,11.522c-2.808-3.013-5.88-5.852-9.178-8.482l9.45-27.041   c0.245-0.701,0.283-1.43,0.144-2.116c-0.231-1.142-0.957-2.165-2.05-2.743l-14.313-7.576c-1.752-0.929-3.921-0.433-5.095,1.167   l-16.937,23.055c-4.078-1.235-8.172-2.145-12.23-2.717l-5.293-28.148c-0.005-0.024-0.015-0.045-0.02-0.069   c-0.394-1.916-2.088-3.277-4.076-3.191l-16.177,0.662c-1.974,0.081-3.593,1.59-3.812,3.554l-3.168,28.464   c-4.052,0.937-8.057,2.171-11.963,3.687l-18.629-21.688c-1.292-1.504-3.493-1.834-5.17-0.775l-13.712,8.662   c-1.672,1.057-2.321,3.176-1.527,4.988l6.451,14.714l5.031,11.475c-3.022,2.869-5.849,5.952-8.443,9.208l-27.041-9.448   c-1.865-0.652-3.929,0.157-4.854,1.905l-7.578,14.313c-0.581,1.096-0.604,2.355-0.148,3.431c0.273,0.646,0.717,1.226,1.317,1.666   l23.054,16.933c-1.224,4.037-2.146,8.132-2.751,12.231l-28.059,5.293c-1.945,0.367-3.329,2.101-3.255,4.079l0.586,15.748   c-8.13,1.578-15.189,3.324-20.946,5.194c-13.804,4.484-20.234,9.553-20.234,15.952c0,0.486,0.056,0.966,0.138,1.442   c0.343,1.994,1.405,3.892,3.17,5.67v50.014c-7.034,0.533-13.562,2.592-19.123,5.796V166.269   c8.045-1.827,14.074-9.021,14.074-17.609c0-9.933-8.108-18.013-18.074-18.013c-9.93,0-18.009,8.081-18.009,18.013   c0,8.583,6,15.773,14.009,17.605v112.518c-6.282,6.151-10.102,14.189-10.102,22.982c0,18.265,16.392,33.301,37.225,34.885v58.566   v0.001c0,1.367,0.699,2.64,1.852,3.374l84.07,53.518c0.642,0.409,1.387,0.626,2.148,0.626h132.115h0.002   c0.761,0,1.505-0.217,2.146-0.625l84.133-53.518c1.154-0.734,1.854-2.007,1.854-3.375v-58.571   c20.805-1.608,37.165-16.634,37.165-34.881c0-8.935-3.939-17.093-10.404-23.281V166.266c7.429-1.699,13.13-8.005,13.918-15.761   c0.062-0.606,0.093-1.222,0.093-1.845c0-0.621-0.031-1.234-0.093-1.839C452.144,137.749,444.461,130.647,435.15,130.647z    M70.938,148.66c0-5.521,4.49-10.013,10.009-10.013c5.555,0,10.074,4.492,10.074,10.013c0,5.553-4.519,10.07-10.074,10.07   C75.428,158.73,70.938,154.213,70.938,148.66z M207.589,112.714l-11.247-25.653l7.883-4.98l18.254,21.253   c1.136,1.323,2.999,1.755,4.604,1.073c5.158-2.202,10.533-3.857,15.975-4.921c1.715-0.335,3.015-1.746,3.208-3.483l3.107-27.917   l9.29-0.38l5.195,27.629c0.033,0.178,0.086,0.348,0.142,0.516c0.488,1.483,1.804,2.569,3.391,2.728   c5.354,0.538,10.821,1.747,16.249,3.593c1.649,0.563,3.479-0.012,4.512-1.418l16.599-22.593l8.222,4.352l-9.269,26.52   c-0.288,0.826-0.292,1.697-0.048,2.493c0.244,0.797,0.735,1.518,1.438,2.04c4.548,3.383,8.663,7.189,12.23,11.312   c1.148,1.328,3.029,1.751,4.634,1.045l25.704-11.297l4.937,7.869l-21.215,18.328c-1.156,1-1.629,2.554-1.265,4.002   c0.053,0.208,0.121,0.413,0.208,0.614c1.627,3.769,2.965,7.721,3.995,11.794c0.343,1.357,0.651,2.728,0.926,4.109   c0,0,0,0.001,0.001,0.001c0,0.001,0,0.002,0,0.002c0.34,1.711,1.748,3.004,3.481,3.197l27.903,3.106l0.36,9.717l-21.897,7.159   c-0.223-0.022-0.439-0.047-0.663-0.068c-0.455-0.042-0.91-0.083-1.354-0.137c-2.2-0.265-4.187,1.297-4.451,3.491   c-0.266,2.193,1.297,4.186,3.49,4.452c0.184,0.022,0.374,0.038,0.56,0.057c0.977,0.576,2.18,0.746,3.333,0.347   c55.171,6.121,60.991,14.625,61.564,16.753c0.048,0.18,0.059,0.314,0.059,0.396c0,0.304-0.37,1.117-1.742,2.224   c-0.037,0.03-0.07,0.054-0.106,0.083c-0.204,0.16-0.396,0.304-0.577,0.431c-0.05,0.036-0.102,0.071-0.15,0.104   c-0.187,0.125-0.366,0.234-0.544,0.333c-0.024,0.014-0.05,0.029-0.074,0.042c-0.172,0.093-0.336,0.198-0.492,0.315   c-0.277,0.208-0.699,0.43-1.036,0.6c-0.065,0.033-0.13,0.068-0.193,0.105c-0.051,0.029-0.107,0.058-0.159,0.088   c-0.563,0.317-1.194,0.633-1.813,0.896c-0.016,0.006-0.029,0.014-0.045,0.021c-0.06,0.026-0.119,0.051-0.178,0.08   c-1.396,0.7-3.124,1.401-5.239,2.129c-0.378,0.125-0.764,0.258-1.155,0.393c-0.693,0.239-1.411,0.487-2.213,0.726   c-6.635,2.081-15.345,4.063-25.882,5.889l-0.244,0.042c-0.347,0.06-0.688,0.118-1.03,0.176c-0.134,0.023-0.268,0.045-0.4,0.068   c-0.491,0.083-0.985,0.163-1.484,0.241c-0.433,0.068-0.871,0.131-1.312,0.192c-0.132,0.019-0.26,0.04-0.392,0.058   c-0.143,0.019-0.278,0.04-0.423,0.059c-5.203,0.807-11.001,1.588-17.236,2.323c-1.069,0.126-2.139,0.236-3.218,0.347   c-0.979,0.1-1.964,0.201-2.902,0.309c-4.123,0.409-8.548,0.835-13,1.193c-4.833,0.419-9.873,0.781-15.007,1.08   c-3.583,0.231-7.163,0.401-10.953,0.58l-1.503,0.066c-1.014,0.043-2.059,0.088-3.13,0.13l-2.128,0.08   c-0.131,0.005-0.264,0.01-0.395,0.015l-2.537,0.095c-3.298,0.115-6.708,0.233-10.169,0.291c-0.198,0.005-0.38,0.01-0.573,0.015   c-0.754,0.02-1.513,0.038-2.275,0.054c-0.185,0.004-0.376,0.008-0.558,0.012c-1.031,0.02-2.061,0.033-3.072,0.034   c-0.071,0-0.141,0.001-0.212,0.001c-8.753,0.126-18.492,0.127-27.363,0c-2.177,0-4.442-0.059-6.67-0.116   c-3.42-0.056-6.829-0.174-10.125-0.289l-0.303-0.01c-2.471-0.062-4.891-0.178-7.358-0.301c-0.272-0.014-0.55-0.015-0.837-0.029   c-0.317-0.017-0.633-0.031-0.936-0.034c-3.697-0.181-7.276-0.355-10.79-0.533c-4.643-0.311-10.116-0.689-15.521-1.141   c-4.392-0.353-8.726-0.776-12.916-1.185c-0.999-0.114-1.983-0.215-2.961-0.315c-1.078-0.111-2.148-0.22-3.22-0.347   c-6.165-0.727-11.986-1.508-17.377-2.335c-1.625-0.217-3.188-0.486-4.842-0.771l-0.296-0.051   c-10.544-1.827-19.254-3.809-25.946-5.908c-0.687-0.204-1.33-0.433-1.958-0.654c-0.435-0.153-0.863-0.304-1.279-0.442   c-2.112-0.707-3.896-1.423-5.304-2.131c-0.076-0.038-0.153-0.074-0.231-0.107c-0.671-0.285-1.369-0.633-1.964-0.978   c-0.16-0.093-0.291-0.159-0.462-0.229c-0.11-0.053-0.217-0.121-0.327-0.185l-0.082-0.048c-0.929-0.55-1.753-1.169-2.234-1.542   c-1.173-0.945-1.685-1.674-1.795-2.08c-0.016-0.057-0.023-0.107-0.023-0.151c0-2.577,11.108-11.277,60.413-17.253   c0.727-0.078,1.464-0.167,2.211-0.258c0.975-0.118,1.969-0.238,2.981-0.337c2.199-0.214,3.807-2.171,3.592-4.37   c-0.214-2.198-2.163-3.807-4.37-3.592c-1.074,0.104-2.128,0.232-3.163,0.357c-0.509,0.062-1.019,0.122-1.537,0.181   c-0.073-0.002-0.145-0.019-0.219-0.018l-18.866,0.352l-0.328-8.813l27.528-5.193c1.728-0.326,3.041-1.742,3.234-3.49   c0.605-5.46,1.836-10.942,3.659-16.293c0.352-1.033,0.26-2.135-0.203-3.068c-0.277-0.56-0.688-1.06-1.216-1.448l-22.593-16.595   l4.353-8.222l26.521,9.266c1.651,0.576,3.484,0.014,4.528-1.388c3.327-4.47,7.127-8.616,11.297-12.324   c1.295-1.152,1.701-3.007,1.005-4.595L207.589,112.714C207.59,112.715,207.589,112.714,207.589,112.714z M77.68,312.747   c-1.822-3.357-2.835-7.074-2.835-10.981c0.001-13.863,12.811-25.317,29.225-26.809v53.675   C92.272,327.558,82.336,321.326,77.68,312.747z M193.305,444.735l-81.235-51.714v-60.225v-62.004v-48.594   c0.109,0.049,0.218,0.097,0.327,0.144c0.001,0.001,0.003,0.002,0.005,0.002c0.049,0.025,0.105,0.048,0.155,0.073   c0.388,0.191,0.785,0.38,1.204,0.567c0.169,0.075,0.354,0.149,0.528,0.224c0.313,0.135,0.622,0.27,0.953,0.403   c0.226,0.09,0.471,0.18,0.705,0.271c0.299,0.116,0.591,0.231,0.905,0.347c0.309,0.113,0.643,0.226,0.966,0.339   c0.249,0.087,0.485,0.174,0.744,0.261c0.026,0.01,0.053,0.019,0.08,0.028c0.533,0.203,1.067,0.396,1.62,0.583   c0.031,0.011,0.064,0.021,0.095,0.031c0.537,0.18,1.091,0.355,1.677,0.53c0.018,0.005,0.037,0.012,0.055,0.018   c7.063,2.217,15.866,4.225,26.919,6.14l0.065,0.011c1.191,0.212,2.873,0.503,4.584,0.747c0.224,0.032,0.45,0.063,0.675,0.094   c0.013,0.002,0.026,0.004,0.039,0.006c5.402,0.829,11.315,1.624,17.576,2.362c0.009,0.001,0.019,0.002,0.029,0.003   c2.167,0.256,4.136,0.483,6.171,0.662c0.003,0,0.006,0,0.009,0.001c0.022,0.002,0.108,0.011,0.13,0.013   c0.47,0.046,0.958,0.091,1.432,0.138c3.448,0.339,6.876,0.663,10.359,0.95c0.419,0.035,0.829,0.076,1.25,0.109   c5.496,0.459,10.99,0.839,15.704,1.153c0.675,0.034,1.355,0.068,2.031,0.102c0.985,0.049,1.971,0.099,2.97,0.148   c1.749,0.086,3.509,0.172,5.297,0.26l0.657,0.032c0.271,0.016,0.545,0.015,0.828,0.029c0.317,0.017,0.635,0.032,0.94,0.035   c2.479,0.124,4.917,0.239,7.429,0.302l0.261,0.009c3.333,0.116,6.779,0.236,10.236,0.292l0.151,0.004   c1.301,0.034,2.631,0.063,3.967,0.085c0.664,0.011,1.329,0.018,1.997,0.021c0.215,0.001,0.429,0.007,0.643,0.007   c0.008,0,0.016,0,0.024,0c4.407,0.063,9.101,0.125,13.768,0.125c4.669,0,9.361-0.062,13.711-0.125c0.295,0,0.577-0.007,0.87-0.009   c0.568-0.003,1.132-0.009,1.697-0.018c1.446-0.022,2.87-0.054,4.234-0.09c3.498-0.057,6.948-0.177,10.285-0.293l5.081-0.19   c0.451-0.018,0.872-0.037,1.312-0.055c0.299-0.013,0.595-0.025,0.888-0.038c0.372-0.016,0.763-0.031,1.127-0.047l1.448-0.064   c3.801-0.18,7.391-0.35,10.994-0.583c5.165-0.299,10.281-0.667,15.182-1.092c0.6-0.048,1.196-0.101,1.794-0.151   c2.74-0.229,5.427-0.478,8.098-0.737c1.111-0.108,2.21-0.216,3.292-0.323c0.003,0,0.005,0,0.008-0.001   c1.675-0.147,3.502-0.342,5.67-0.602c0.143-0.017,0.274-0.032,0.421-0.05c0.037-0.004,0.075-0.008,0.112-0.012   c0.741-0.087,1.456-0.178,2.186-0.267c0.115-0.014,0.23-0.028,0.345-0.042c1.35-0.165,2.676-0.332,3.979-0.501   c0.276-0.036,0.552-0.071,0.826-0.107c1.162-0.152,2.303-0.306,3.425-0.461c0.346-0.048,0.688-0.096,1.03-0.144   c1.11-0.156,2.197-0.313,3.266-0.472c0.235-0.035,0.469-0.07,0.702-0.105c0.569-0.085,1.158-0.17,1.715-0.256   c1.834-0.239,3.543-0.533,5.196-0.818l0.273-0.047c11.046-1.915,19.85-3.922,26.854-6.121c0.017-0.005,0.032-0.011,0.049-0.016   c0.681-0.202,1.285-0.39,1.844-0.574c0.033-0.011,0.071-0.022,0.104-0.033c0.233-0.078,0.454-0.155,0.673-0.231   c0.064-0.022,0.133-0.045,0.195-0.067c0.172-0.061,0.336-0.123,0.501-0.185c0.078-0.029,0.158-0.058,0.235-0.086   c2.423-0.834,4.423-1.646,6.106-2.479c0.148-0.061,0.286-0.124,0.428-0.187v170.841l-81.297,51.715H193.305z M441.555,301.766   c0,13.876-12.779,25.344-29.165,26.861v-53.664C428.775,276.477,441.555,287.92,441.555,301.766z M425.077,148.66   c0-5.521,4.519-10.013,10.073-10.013c5.52,0,10.011,4.492,10.011,10.013c0,5.553-4.491,10.07-10.011,10.07   C429.596,158.73,425.077,154.213,425.077,148.66z"></path><path d="M163.214,268.721c-15.867,0-28.776,12.936-28.776,28.836c0,15.867,12.909,28.775,28.776,28.775   c15.868,0,28.777-12.908,28.777-28.775C191.991,281.656,179.082,268.721,163.214,268.721z M163.214,318.332   c-11.456,0-20.776-9.319-20.776-20.775c0-11.489,9.32-20.836,20.776-20.836c11.457,0,20.777,9.347,20.777,20.836   C183.991,309.013,174.67,318.332,163.214,318.332z"></path><path d="M163.214,283.753c-7.61,0-13.801,6.192-13.801,13.804c0,7.577,6.191,13.741,13.801,13.741   c7.61,0,13.802-6.164,13.802-13.741C177.016,289.945,170.824,283.753,163.214,283.753z M163.214,303.298   c-3.199,0-5.801-2.575-5.801-5.741c0-3.2,2.602-5.804,5.801-5.804c3.199,0,5.802,2.604,5.802,5.804   C169.016,300.723,166.413,303.298,163.214,303.298z"></path><path d="M350.238,268.721c-15.867,0-28.776,12.936-28.776,28.836c0,15.867,12.909,28.775,28.776,28.775   c15.9,0,28.836-12.908,28.836-28.775C379.074,281.656,366.139,268.721,350.238,268.721z M350.238,318.332   c-11.456,0-20.776-9.319-20.776-20.775c0-11.489,9.32-20.836,20.776-20.836c11.489,0,20.836,9.347,20.836,20.836   C371.074,309.013,361.728,318.332,350.238,318.332z"></path><path d="M350.238,283.753c-7.578,0-13.743,6.192-13.743,13.804c0,7.577,6.165,13.741,13.743,13.741   c7.644,0,13.862-6.164,13.862-13.741C364.101,289.945,357.882,283.753,350.238,283.753z M350.238,303.298   c-3.221,0-5.743-2.521-5.743-5.741c0-3.2,2.576-5.804,5.743-5.804c3.232,0,5.862,2.604,5.862,5.804   C356.101,300.723,353.471,303.298,350.238,303.298z"></path><path d="M316.32,390.073H200.077c-2.209,0-4,1.791-4,4s1.791,4,4,4H316.32c2.209,0,4-1.791,4-4S318.529,390.073,316.32,390.073z"></path><path d="M488.937,199.55c-1.22-1.841-3.702-2.345-5.544-1.124c-1.842,1.221-2.345,3.703-1.124,5.544   c6.017,9.077,9.197,19.644,9.197,30.56c0,10.977-3.178,21.542-9.19,30.555c-1.227,1.838-0.73,4.321,1.107,5.547   c0.682,0.455,1.453,0.673,2.216,0.673c1.292,0,2.561-0.625,3.331-1.78c6.893-10.332,10.536-22.433,10.536-34.995   C499.466,222.037,495.825,209.941,488.937,199.55z"></path><path d="M476.409,208.931c-1.188-1.864-3.661-2.412-5.522-1.224c-1.863,1.188-2.411,3.66-1.224,5.523   c4.074,6.394,6.228,13.759,6.228,21.299c0,7.545-2.153,14.913-6.228,21.306c-1.188,1.863-0.64,4.335,1.224,5.523   c0.666,0.425,1.41,0.628,2.146,0.628c1.321,0,2.614-0.654,3.377-1.852c4.895-7.679,7.481-16.534,7.481-25.605   C483.891,225.462,481.304,216.611,476.409,208.931z"></path><path d="M457.672,217.482c-1.909,1.111-2.556,3.56-1.444,5.469c2.075,3.564,3.128,7.459,3.128,11.577   c0,4.16-1.053,8.077-3.128,11.642c-1.111,1.909-0.465,4.358,1.444,5.47c0.634,0.369,1.325,0.543,2.009,0.543   c1.378,0,2.718-0.712,3.461-1.988c2.757-4.736,4.214-10.153,4.214-15.667c0-5.55-1.418-10.8-4.214-15.603   C462.029,217.017,459.58,216.37,457.672,217.482z"></path><path d="M20.301,234.53c0-10.913,3.181-21.481,9.198-30.561c1.22-1.841,0.717-4.323-1.125-5.544   c-1.84-1.221-4.323-0.716-5.544,1.125c-6.888,10.394-10.529,22.49-10.529,34.979c0,12.559,3.643,24.66,10.536,34.995   c0.771,1.155,2.039,1.78,3.332,1.78c0.762,0,1.533-0.218,2.215-0.672c1.838-1.226,2.334-3.71,1.108-5.548   C23.479,256.069,20.301,245.503,20.301,234.53z"></path><path d="M35.878,234.529c0-7.541,2.153-14.906,6.227-21.299c1.187-1.863,0.639-4.336-1.224-5.523   c-1.864-1.188-4.335-0.639-5.523,1.224c-4.893,7.68-7.479,16.532-7.479,25.598c0,9.071,2.586,17.925,7.479,25.605   c0.763,1.197,2.056,1.852,3.377,1.852c0.735,0,1.479-0.203,2.146-0.628c1.863-1.187,2.411-3.659,1.224-5.522   C38.031,249.442,35.878,242.074,35.878,234.529z"></path><path d="M54.057,217.459c-1.923-1.091-4.362-0.415-5.453,1.506c-2.74,4.831-4.129,10.067-4.129,15.563   c0,5.46,1.428,10.864,4.129,15.627c0.736,1.299,2.09,2.027,3.483,2.027c0.668,0,1.346-0.167,1.969-0.521   c1.922-1.09,2.596-3.531,1.506-5.453c-2.049-3.613-3.088-7.543-3.088-11.681c0-4.095,1.039-8.003,3.088-11.616   C56.652,220.991,55.978,218.55,54.057,217.459z"></path><path d="M336.047,86.028h18.128l14.34,14.344c0.75,0.75,1.768,1.172,2.829,1.172h30.251c2.209,0,4-1.791,4-4s-1.791-4-4-4h-28.594   l-7.514-7.516h46.294c1.594,3.976,5.479,6.794,10.019,6.794c5.92,0,10.736-4.842,10.736-10.794c0-5.952-4.816-10.794-10.736-10.794   c-4.539,0-8.425,2.819-10.019,6.794H366.04l6.961-6.975h28.594c2.209,0,4-1.791,4-4s-1.791-4-4-4h-30.251   c-1.061,0-2.078,0.421-2.829,1.172l-13.801,13.803h-18.667c-2.209,0-4,1.791-4,4S333.838,86.028,336.047,86.028z M421.8,79.234   c1.509,0,2.736,1.253,2.736,2.794c0,1.541-1.228,2.794-2.736,2.794c-1.542,0-2.796-1.253-2.796-2.794   C419.004,80.487,420.258,79.234,421.8,79.234z"></path><path d="M69.622,100.938h46.293l-7.459,7.458H79.805c-2.209,0-4,1.791-4,4s1.791,4,4,4h30.308c1.061,0,2.078-0.421,2.828-1.171   l14.288-14.287h18.124c2.209,0,4-1.791,4-4s-1.791-4-4-4H126.75l-13.804-13.855c-0.75-0.754-1.771-1.177-2.834-1.177H79.805   c-2.209,0-4,1.791-4,4s1.791,4,4,4h28.646l7.005,7.033H69.622c-1.584-3.976-5.449-6.795-9.964-6.795   c-5.952,0.001-10.794,4.844-10.794,10.795c0,5.952,4.843,10.794,10.795,10.794C64.173,107.732,68.037,104.913,69.622,100.938z    M59.659,99.732c-1.542,0-2.795-1.253-2.795-2.794s1.254-2.794,2.795-2.795c1.509,0,2.736,1.254,2.736,2.795   C62.395,98.479,61.168,99.732,59.659,99.732z"></path><path d="M226.69,209.191c0.778,0.759,1.786,1.137,2.793,1.137c1.04,0,2.08-0.403,2.863-1.207c1.543-1.581,1.512-4.114-0.069-5.656   c-7.017-6.846-11.052-15.893-11.363-25.501c-0.814-20.568,15.268-37.965,35.848-38.78c9.965-0.389,19.476,3.122,26.804,9.904   c7.331,6.786,11.586,16.022,11.98,26.01c0.316,7.937-1.882,15.633-6.354,22.256c-1.236,1.831-0.755,4.317,1.075,5.554   c1.831,1.235,4.317,0.755,5.554-1.076c5.435-8.045,8.104-17.4,7.72-27.05c-0.479-12.119-5.643-23.329-14.541-31.564   c-8.898-8.236-20.46-12.496-32.554-12.027c-24.988,0.99-44.513,22.114-43.526,47.062   C213.297,189.907,218.188,200.895,226.69,209.191z"></path></g></svg>