<svg width="14" height="15" viewBox="0 0 14 15" fill="none" xmlns="http://www.w3.org/2000/svg">
<path d="M4.10111 13.9777C4.28169 13.9777 4.42807 13.8302 4.42807 13.6482C4.42807 13.4662 4.28169 13.3186 4.10111 13.3186C3.92054 13.3186 3.77415 13.4662 3.77415 13.6482C3.77415 13.8302 3.92054 13.9777 4.10111 13.9777Z" fill="#D43310"/>
<path d="M1.22588 4.72827L1.08121 5.02345L0.758194 5.07078L0.992111 5.30054L0.93684 5.62497L1.22588 5.4718L1.51492 5.62497L1.4598 5.30054L1.69357 5.07078L1.37026 5.02345L1.22588 4.72827Z" fill="#D43310"/>
<path d="M3.91066 2.26135L4.11045 2.15566L4.3098 2.26135L4.27174 2.03732L4.43303 1.87871L4.21005 1.84608L4.11045 1.64233L4.01055 1.84608L3.78743 1.87871L3.94887 2.03732L3.91066 2.26135Z" fill="#D43310"/>
<path d="M12.3619 10.6457L12.5232 10.8043L12.4851 11.0282L12.6846 10.9225L12.8842 11.0282L12.8462 10.8043L13.0075 10.6457L12.7843 10.6129L12.6846 10.4092L12.585 10.6129L12.3619 10.6457Z" fill="#D43310"/>
<path d="M12.6846 2.71777L12.553 3.12599H12.1272L12.4717 3.37839L12.3401 3.78647L12.6846 3.53421L13.029 3.78647L12.8975 3.37839L13.242 3.12599H12.8163L12.6846 2.71777Z" fill="#D43310"/>
<path d="M11.5243 2.07321C11.7049 2.07321 11.8513 1.92566 11.8513 1.74364C11.8513 1.56162 11.7049 1.41406 11.5243 1.41406C11.3438 1.41406 11.1974 1.56162 11.1974 1.74364C11.1974 1.92566 11.3438 2.07321 11.5243 2.07321Z" fill="#D43310"/>
<path d="M12.9087 8.10321C13.0526 8.10321 13.1692 7.98567 13.1692 7.84067C13.1692 7.69567 13.0526 7.57812 12.9087 7.57812C12.7649 7.57812 12.6483 7.69567 12.6483 7.84067C12.6483 7.98567 12.7649 8.10321 12.9087 8.10321Z" fill="#D43310"/>
<path d="M2.16591 3.50883C2.35607 3.50883 2.51022 3.35344 2.51022 3.16176C2.51022 2.97008 2.35607 2.8147 2.16591 2.8147C1.97575 2.8147 1.82159 2.97008 1.82159 3.16176C1.82159 3.35344 1.97575 3.50883 2.16591 3.50883Z" fill="#D43310"/>
<path d="M3.1904 13.6515C3.23794 13.6637 3.28592 13.6744 3.33448 13.6842L3.34877 13.6122C3.30152 13.6027 3.25457 13.5919 3.20819 13.5803L3.1904 13.6515Z" fill="#D43310"/>
<path d="M0.98555 11.196C0.999696 11.292 1.0188 11.3885 1.04228 11.4827L1.11286 11.4648C1.09011 11.3729 1.07145 11.2788 1.05759 11.1853L0.98555 11.196Z" fill="#D43310"/>
<path d="M2.64455 13.4541C2.73161 13.4957 2.82188 13.5335 2.91273 13.5663L2.93723 13.4971C2.84871 13.4652 2.76078 13.4283 2.67575 13.3877L2.64455 13.4541Z" fill="#D43310"/>
<path d="M0.953598 10.7611C0.953598 10.8093 0.954765 10.8574 0.957098 10.9052L1.02987 10.9017C1.02754 10.8551 1.02651 10.8082 1.02651 10.7611C1.02651 10.713 1.02783 10.6648 1.03016 10.6163L0.957244 10.6128C0.954911 10.6623 0.953598 10.7119 0.953598 10.7611Z" fill="#D43310"/>
<path d="M1.97268 12.9126C1.90283 12.8486 1.83575 12.7807 1.77304 12.7104L1.71893 12.7597C1.78325 12.8317 1.85222 12.9014 1.92354 12.967L1.97268 12.9126Z" fill="#D43310"/>
<path d="M1.30347 12.001C1.26322 11.915 1.22676 11.8263 1.19526 11.7375L1.12657 11.7624C1.15866 11.8534 1.19613 11.9442 1.23755 12.0324L1.30347 12.001Z" fill="#D43310"/>
<path d="M1.43675 12.2524L1.37433 12.2902C1.42377 12.3736 1.47802 12.4554 1.53533 12.5335L1.59395 12.4898C1.53795 12.4136 1.48516 12.3337 1.43675 12.2524Z" fill="#D43310"/>
<path d="M2.42622 13.2529C2.34586 13.2042 2.26667 13.1507 2.19128 13.094L2.14767 13.1529C2.22511 13.2112 2.30634 13.266 2.38859 13.3158L2.42622 13.2529Z" fill="#D43310"/>
<path d="M0.98642 10.3196L1.05846 10.3303C1.06546 10.2827 1.07377 10.235 1.08325 10.1873L1.01179 10.1729C1.00202 10.2218 0.993566 10.2706 0.98642 10.3196Z" fill="#D43310"/>
<path d="M13.0712 11.8135L12.9983 11.812C12.9971 11.8605 12.9946 11.9086 12.9902 11.9562L13.0629 11.963C13.0672 11.9136 13.07 11.8639 13.0712 11.8135Z" fill="#D43310"/>
<path d="M12.5542 13.1441C12.6259 13.0625 12.6917 12.9747 12.7499 12.8834L12.6884 12.8438C12.6325 12.9318 12.5691 13.0165 12.4995 13.0951L12.5542 13.1441Z" fill="#D43310"/>
<path d="M12.2739 13.3137C12.1933 13.3803 12.1069 13.4409 12.0173 13.4938L12.054 13.5573C12.1472 13.5025 12.2366 13.4397 12.3202 13.3706L12.2739 13.3137Z" fill="#D43310"/>
<path d="M12.8355 12.5658L12.9025 12.5951C12.9455 12.4953 12.9809 12.3912 13.0078 12.2858L12.9372 12.2676C12.9111 12.3693 12.8769 12.4696 12.8355 12.5658Z" fill="#D43310"/>
<path d="M11.7356 13.6309C11.6384 13.6688 11.5376 13.6991 11.4359 13.721L11.4511 13.7928C11.5565 13.7702 11.661 13.7388 11.7619 13.6994L11.7356 13.6309Z" fill="#D43310"/>
<path d="M10.9815 13.7642L10.9801 13.8377C10.9942 13.838 11.0081 13.8381 11.0221 13.8381C11.0577 13.8381 11.0933 13.8372 11.1285 13.8353L11.1249 13.762C11.0774 13.7645 11.0298 13.7655 10.9815 13.7642Z" fill="#D43310"/>
<path d="M12.9452 5.9873H12.8723V6.28131H12.9452V5.9873Z" fill="#D43310"/>
<path d="M12.9452 4.81128H12.8723V5.10528H12.9452V4.81128Z" fill="#D43310"/>
<path d="M12.9452 6.57544H12.8723V6.86944H12.9452V6.57544Z" fill="#D43310"/>
<path d="M12.9452 5.39917H12.8723V5.69317H12.9452V5.39917Z" fill="#D43310"/>
<path d="M4.02514 10.3784C3.91766 10.4591 3.84679 10.587 3.84679 10.7323C3.84679 10.976 4.04366 11.1743 4.2856 11.1743C4.52739 11.1743 4.72427 10.976 4.72427 10.7323C4.72427 10.4884 4.52739 10.2901 4.2856 10.2901C4.21997 10.2901 4.15814 10.3057 4.10214 10.332L4.10477 10.3304C3.50262 9.31753 3.8675 8.61781 4.02952 8.38673C4.18527 8.58592 4.42633 8.71454 4.6967 8.71454C4.7196 8.71454 4.74235 8.71278 4.76481 8.71116C5.00718 9.5445 5.69566 10.1869 6.55156 10.3558C6.27943 10.5132 6.09524 10.8084 6.09524 11.1468H6.25974C6.25974 10.7353 6.59166 10.4005 6.99999 10.4005C7.40833 10.4005 7.74024 10.7353 7.74024 11.1468H7.90474C7.90474 10.8084 7.72056 10.5132 7.44843 10.3558C8.30433 10.1869 8.99281 9.54436 9.23518 8.71116C9.25764 8.71292 9.28039 8.71454 9.30328 8.71454C9.57337 8.71454 9.81385 8.58636 9.96974 8.38776C10.1291 8.6209 10.4907 9.32871 9.89522 10.3304L9.8977 10.3318C9.84185 10.3057 9.78001 10.2901 9.71439 10.2901C9.4726 10.2901 9.27572 10.4885 9.27572 10.7323C9.27572 10.976 9.4726 11.1743 9.71439 11.1743C9.95633 11.1743 10.1532 10.976 10.1532 10.7323C10.1532 10.587 10.0825 10.4591 9.97485 10.3784L10.0362 10.4155C10.7276 9.25227 10.2146 8.43642 10.0637 8.23782C10.1204 8.12301 10.1531 7.99439 10.1531 7.85783C10.1531 7.38551 9.7717 7.00111 9.30314 7.00111C9.2311 7.00111 9.16139 7.01111 9.0946 7.0283C8.72768 6.26846 7.96774 5.73764 7.08195 5.70633V4.22604C7.15837 4.24163 7.23143 4.27896 7.29064 4.33865C7.4512 4.50035 7.4512 4.76333 7.29064 4.92503L7.40687 5.04219C7.63145 4.81581 7.63145 4.44772 7.40687 4.22149C7.18243 3.99511 6.81697 3.99525 6.59268 4.22149C6.36824 4.44772 6.36824 4.81581 6.59268 5.04219L6.70891 4.92503C6.54849 4.76333 6.54849 4.5002 6.70891 4.33865C6.76812 4.27896 6.84118 4.24163 6.91774 4.22604V5.70619C6.03195 5.7375 5.27202 6.26831 4.9051 7.02816C4.83831 7.01111 4.7686 7.00096 4.69656 7.00096C4.228 7.00096 3.84664 7.38522 3.84664 7.85768C3.84664 7.99424 3.87945 8.12301 3.93604 8.23767C3.78525 8.43627 3.27206 9.25212 3.96345 10.4153L4.02514 10.3784ZM7.82264 7.08372C8.06458 7.08372 8.26145 7.28217 8.26145 7.52605C8.26145 7.76992 8.06458 7.96837 7.82264 7.96837C7.5807 7.96837 7.38383 7.76992 7.38383 7.52605C7.38383 7.28217 7.58056 7.08372 7.82264 7.08372ZM6.17735 7.08372C6.41929 7.08372 6.61616 7.28217 6.61616 7.52605C6.61616 7.76992 6.41929 7.96837 6.17735 7.96837C5.93541 7.96837 5.73854 7.76992 5.73854 7.52605C5.73854 7.28217 5.93541 7.08372 6.17735 7.08372Z" fill="#D43310"/>
<path d="M7.05484 12.4734C7.28161 12.4734 7.46609 12.2874 7.46609 12.0589V11.202C7.46609 10.9734 7.28146 10.7876 7.05484 10.7876H6.94517C6.7184 10.7876 6.53392 10.9736 6.53392 11.202V12.0589C6.53392 12.2874 6.71855 12.4734 6.94517 12.4734H7.05484Z" fill="#D43310"/>
<path d="M5.91427 5.72645C5.62421 5.43407 5.46452 5.0454 5.46452 4.63204C5.46452 4.21852 5.62421 3.82986 5.91427 3.53747C6.20419 3.24524 6.58991 3.08413 7 3.08413C7.41008 3.08413 7.79581 3.24524 8.08573 3.53747C8.68437 4.14091 8.68437 5.12302 8.08573 5.72645L8.20196 5.84361C8.86477 5.17549 8.86477 4.08843 8.20196 3.42031C7.88098 3.09662 7.45398 2.91846 7 2.91846C6.54602 2.91846 6.11902 3.09662 5.79804 3.42031C5.47691 3.74401 5.30002 4.17428 5.30002 4.63204C5.30002 5.08965 5.47691 5.52006 5.79804 5.84361L5.91427 5.72645Z" fill="#D43310"/>
<path d="M7.81434 5.45275C8.26307 5.00014 8.26307 4.26382 7.81434 3.8112C7.59675 3.59203 7.30757 3.47119 6.99986 3.47119C6.69244 3.47119 6.40311 3.59188 6.18567 3.8112C5.96823 4.03053 5.84836 4.32203 5.84836 4.63205C5.84836 4.94207 5.96809 5.23357 6.18567 5.45275L6.3019 5.33559C6.11552 5.14758 6.01286 4.89768 6.01286 4.6319C6.01286 4.36613 6.11552 4.11623 6.3019 3.92821C6.48827 3.74035 6.73634 3.63686 6.99986 3.63686C7.26382 3.63686 7.51159 3.74035 7.69811 3.92821C8.08282 4.31629 8.08282 4.94751 7.69811 5.33559L7.81434 5.45275Z" fill="#D43310"/>
</svg>
