<svg width="14" height="15" viewBox="0 0 14 15" fill="none" xmlns="http://www.w3.org/2000/svg">
<g clip-path="url(#clip0)">
<path d="M4.10111 13.3618C4.28169 13.3618 4.42807 13.2142 4.42807 13.0322C4.42807 12.8502 4.28169 12.7026 4.10111 12.7026C3.92054 12.7026 3.77415 12.8502 3.77415 13.0322C3.77415 13.2142 3.92054 13.3618 4.10111 13.3618Z" fill="#7DD410"/>
<path d="M1.22588 4.1123L1.08121 4.40748L0.758194 4.45481L0.992111 4.68458L0.93684 5.00901L1.22588 4.85583L1.51492 5.00901L1.4598 4.68458L1.69357 4.45481L1.37026 4.40748L1.22588 4.1123Z" fill="#7DD410"/>
<path d="M3.91066 1.64538L4.11045 1.53969L4.3098 1.64538L4.27174 1.42136L4.43303 1.26274L4.21005 1.23011L4.11045 1.02637L4.01055 1.23011L3.78743 1.26274L3.94887 1.42136L3.91066 1.64538Z" fill="#7DD410"/>
<path d="M12.3619 10.0297L12.5232 10.1883L12.4851 10.4122L12.6846 10.3065L12.8842 10.4122L12.8462 10.1883L13.0075 10.0297L12.7843 9.99695L12.6846 9.79321L12.585 9.99695L12.3619 10.0297Z" fill="#7DD410"/>
<path d="M12.6846 2.10181L12.553 2.51003H12.1272L12.4717 2.76243L12.3401 3.1705L12.6846 2.91825L13.029 3.1705L12.8975 2.76243L13.242 2.51003H12.8163L12.6846 2.10181Z" fill="#7DD410"/>
<path d="M11.5243 1.45724C11.7049 1.45724 11.8513 1.30969 11.8513 1.12767C11.8513 0.945651 11.7049 0.798096 11.5243 0.798096C11.3438 0.798096 11.1974 0.945651 11.1974 1.12767C11.1974 1.30969 11.3438 1.45724 11.5243 1.45724Z" fill="#7DD410"/>
<path d="M12.9087 7.48724C13.0526 7.48724 13.1692 7.3697 13.1692 7.2247C13.1692 7.0797 13.0526 6.96216 12.9087 6.96216C12.7649 6.96216 12.6483 7.0797 12.6483 7.2247C12.6483 7.3697 12.7649 7.48724 12.9087 7.48724Z" fill="#7DD410"/>
<path d="M2.16591 2.89287C2.35607 2.89287 2.51022 2.73748 2.51022 2.5458C2.51022 2.35412 2.35607 2.19873 2.16591 2.19873C1.97575 2.19873 1.82159 2.35412 1.82159 2.5458C1.82159 2.73748 1.97575 2.89287 2.16591 2.89287Z" fill="#7DD410"/>
<path d="M3.1904 13.0355C3.23794 13.0477 3.28592 13.0584 3.33448 13.0683L3.34877 12.9963C3.30152 12.9867 3.25457 12.976 3.20819 12.9644L3.1904 13.0355Z" fill="#7DD410"/>
<path d="M0.98555 10.5801C0.999696 10.6761 1.0188 10.7725 1.04228 10.8667L1.11286 10.8488C1.09011 10.7569 1.07145 10.6628 1.05759 10.5693L0.98555 10.5801Z" fill="#7DD410"/>
<path d="M2.64455 12.8382C2.73161 12.8798 2.82188 12.9175 2.91273 12.9503L2.93723 12.8811C2.84871 12.8492 2.76078 12.8123 2.67575 12.7717L2.64455 12.8382Z" fill="#7DD410"/>
<path d="M0.953598 10.1452C0.953598 10.1934 0.954765 10.2414 0.957098 10.2892L1.02987 10.2857C1.02754 10.2391 1.02651 10.1922 1.02651 10.1452C1.02651 10.0971 1.02783 10.0489 1.03016 10.0004L0.957244 9.99683C0.954911 10.0464 0.953598 10.0959 0.953598 10.1452Z" fill="#7DD410"/>
<path d="M1.97268 12.2966C1.90283 12.2327 1.83575 12.1647 1.77304 12.0945L1.71893 12.1437C1.78325 12.2158 1.85222 12.2854 1.92354 12.351L1.97268 12.2966Z" fill="#7DD410"/>
<path d="M1.30347 11.385C1.26322 11.299 1.22676 11.2104 1.19526 11.1216L1.12657 11.1464C1.15866 11.2374 1.19613 11.3283 1.23755 11.4165L1.30347 11.385Z" fill="#7DD410"/>
<path d="M1.43675 11.6365L1.37433 11.6743C1.42377 11.7576 1.47802 11.8395 1.53533 11.9175L1.59395 11.8739C1.53795 11.7976 1.48516 11.7178 1.43675 11.6365Z" fill="#7DD410"/>
<path d="M2.42622 12.6369C2.34586 12.5883 2.26667 12.5348 2.19128 12.478L2.14767 12.537C2.22511 12.5952 2.30634 12.65 2.38859 12.6999L2.42622 12.6369Z" fill="#7DD410"/>
<path d="M0.98642 9.70359L1.05846 9.71432C1.06546 9.6667 1.07377 9.61907 1.08325 9.57129L1.01179 9.55688C1.00202 9.60584 0.993566 9.65464 0.98642 9.70359Z" fill="#7DD410"/>
<path d="M13.0712 11.1975L12.9983 11.196C12.9971 11.2446 12.9946 11.2926 12.9902 11.3403L13.0629 11.347C13.0672 11.2976 13.07 11.2479 13.0712 11.1975Z" fill="#7DD410"/>
<path d="M12.5542 12.5281C12.6259 12.4465 12.6917 12.3588 12.7499 12.2675L12.6884 12.2278C12.6325 12.3158 12.5691 12.4005 12.4995 12.4792L12.5542 12.5281Z" fill="#7DD410"/>
<path d="M12.2739 12.6978C12.1933 12.7643 12.1069 12.8249 12.0173 12.8778L12.054 12.9413C12.1472 12.8865 12.2366 12.8237 12.3202 12.7546L12.2739 12.6978Z" fill="#7DD410"/>
<path d="M12.8355 11.9499L12.9025 11.9791C12.9455 11.8793 12.9809 11.7752 13.0078 11.6698L12.9372 11.6516C12.9111 11.7533 12.8769 11.8536 12.8355 11.9499Z" fill="#7DD410"/>
<path d="M11.7356 13.0149C11.6384 13.0528 11.5376 13.0831 11.4359 13.105L11.4511 13.1769C11.5565 13.1542 11.661 13.1228 11.7619 13.0834L11.7356 13.0149Z" fill="#7DD410"/>
<path d="M10.9815 13.1482L10.9801 13.2217C10.9942 13.222 11.0081 13.2221 11.0221 13.2221C11.0577 13.2221 11.0933 13.2213 11.1285 13.2193L11.1249 13.146C11.0774 13.1485 11.0298 13.1495 10.9815 13.1482Z" fill="#7DD410"/>
<path d="M12.9452 5.37134H12.8723V5.66534H12.9452V5.37134Z" fill="#7DD410"/>
<path d="M12.9452 4.19531H12.8723V4.48931H12.9452V4.19531Z" fill="#7DD410"/>
<path d="M12.9452 5.95947H12.8723V6.25347H12.9452V5.95947Z" fill="#7DD410"/>
<path d="M12.9452 4.7832H12.8723V5.0772H12.9452V4.7832Z" fill="#7DD410"/>
<path d="M4.02514 9.76247C3.91766 9.84317 3.84679 9.97106 3.84679 10.1163C3.84679 10.36 4.04366 10.5583 4.2856 10.5583C4.52739 10.5583 4.72427 10.36 4.72427 10.1163C4.72427 9.87242 4.52739 9.67412 4.2856 9.67412C4.21997 9.67412 4.15814 9.6897 4.10214 9.71601L4.10477 9.7144C3.50262 8.70157 3.8675 8.00185 4.02952 7.77076C4.18527 7.96995 4.42633 8.09857 4.6967 8.09857C4.7196 8.09857 4.74235 8.09681 4.76481 8.09519C5.00718 8.92854 5.69566 9.57093 6.55156 9.73983C6.27943 9.89727 6.09524 10.1924 6.09524 10.5308H6.25974C6.25974 10.1194 6.59166 9.78452 6.99999 9.78452C7.40833 9.78452 7.74024 10.1194 7.74024 10.5308H7.90474C7.90474 10.1924 7.72056 9.89727 7.44843 9.73983C8.30433 9.57093 8.99281 8.92839 9.23518 8.09519C9.25764 8.09696 9.28039 8.09857 9.30328 8.09857C9.57337 8.09857 9.81385 7.97039 9.96974 7.77179C10.1291 8.00494 10.4907 8.71274 9.89522 9.7144L9.8977 9.71587C9.84185 9.6897 9.78001 9.67412 9.71439 9.67412C9.4726 9.67412 9.27572 9.87257 9.27572 10.1163C9.27572 10.36 9.4726 10.5583 9.71439 10.5583C9.95633 10.5583 10.1532 10.36 10.1532 10.1163C10.1532 9.97106 10.0825 9.84317 9.97485 9.76247L10.0362 9.79951C10.7276 8.6363 10.2146 7.82045 10.0637 7.62185C10.1204 7.50705 10.1531 7.37842 10.1531 7.24186C10.1531 6.76955 9.7717 6.38514 9.30314 6.38514C9.2311 6.38514 9.16139 6.39514 9.0946 6.41234C8.72768 5.65249 7.96774 5.12168 7.08195 5.09037V3.61008C7.15837 3.62566 7.23143 3.663 7.29064 3.72268C7.4512 3.88438 7.4512 4.14736 7.29064 4.30906L7.40687 4.42622C7.63145 4.19984 7.63145 3.83175 7.40687 3.60552C7.18243 3.37914 6.81697 3.37929 6.59268 3.60552C6.36824 3.83175 6.36824 4.19984 6.59268 4.42622L6.70891 4.30906C6.54849 4.14736 6.54849 3.88423 6.70891 3.72268C6.76812 3.663 6.84118 3.62566 6.91774 3.61008V5.09022C6.03195 5.12153 5.27202 5.65235 4.9051 6.41219C4.83831 6.39514 4.7686 6.385 4.69656 6.385C4.228 6.385 3.84664 6.76925 3.84664 7.24171C3.84664 7.37827 3.87945 7.50705 3.93604 7.62171C3.78525 7.8203 3.27206 8.63615 3.96345 9.79936L4.02514 9.76247ZM7.82264 6.46776C8.06458 6.46776 8.26145 6.66621 8.26145 6.91008C8.26145 7.15395 8.06458 7.3524 7.82264 7.3524C7.5807 7.3524 7.38383 7.15395 7.38383 6.91008C7.38383 6.66621 7.58056 6.46776 7.82264 6.46776ZM6.17735 6.46776C6.41929 6.46776 6.61616 6.66621 6.61616 6.91008C6.61616 7.15395 6.41929 7.3524 6.17735 7.3524C5.93541 7.3524 5.73854 7.15395 5.73854 6.91008C5.73854 6.66621 5.93541 6.46776 6.17735 6.46776Z" fill="#7DD410"/>
<path d="M7.05484 11.8574C7.28161 11.8574 7.46609 11.6715 7.46609 11.4429V10.586C7.46609 10.3574 7.28146 10.1716 7.05484 10.1716H6.94517C6.7184 10.1716 6.53392 10.3576 6.53392 10.586V11.4429C6.53392 11.6715 6.71855 11.8574 6.94517 11.8574H7.05484Z" fill="#7DD410"/>
<path d="M5.91427 5.11048C5.62421 4.8181 5.46452 4.42943 5.46452 4.01607C5.46452 3.60256 5.62421 3.21389 5.91427 2.92151C6.20419 2.62927 6.58991 2.46816 7 2.46816C7.41008 2.46816 7.79581 2.62927 8.08573 2.92151C8.68437 3.52494 8.68437 4.50705 8.08573 5.11048L8.20196 5.22764C8.86477 4.55953 8.86477 3.47246 8.20196 2.80435C7.88098 2.48065 7.45398 2.30249 7 2.30249C6.54602 2.30249 6.11902 2.48065 5.79804 2.80435C5.47691 3.12804 5.30002 3.55831 5.30002 4.01607C5.30002 4.47368 5.47691 4.9041 5.79804 5.22764L5.91427 5.11048Z" fill="#7DD410"/>
<path d="M7.81434 4.83679C8.26307 4.38417 8.26307 3.64785 7.81434 3.19524C7.59675 2.97606 7.30757 2.85522 6.99986 2.85522C6.69244 2.85522 6.40311 2.97591 6.18567 3.19524C5.96823 3.41456 5.84836 3.70606 5.84836 4.01608C5.84836 4.32611 5.96809 4.61761 6.18567 4.83679L6.3019 4.71963C6.11552 4.53161 6.01286 4.28171 6.01286 4.01594C6.01286 3.75016 6.11552 3.50026 6.3019 3.31225C6.48827 3.12438 6.73634 3.02089 6.99986 3.02089C7.26382 3.02089 7.51159 3.12438 7.69811 3.31225C8.08282 3.70033 8.08282 4.33155 7.69811 4.71963L7.81434 4.83679Z" fill="#7DD410"/>
</g>
<defs>
<clipPath id="clip0">
<rect width="14" height="14.112" fill="white" transform="translate(0 0.0239258)"/>
</clipPath>
</defs>
</svg>
