<svg width="32" height="32" viewBox="0 0 32 32" fill="none" xmlns="http://www.w3.org/2000/svg">
<path d="M14.4821 19.693V23.1456L16.2776 21.3494C16.3092 21.3178 16.3466 21.2928 16.3879 21.2757C16.4291 21.2587 16.4732 21.2499 16.5179 21.2499C16.5625 21.2499 16.6066 21.2587 16.6479 21.2757C16.6891 21.2928 16.7265 21.3178 16.7581 21.3494C16.7896 21.3809 16.8146 21.4184 16.8317 21.4596C16.8488 21.5008 16.8576 21.545 16.8576 21.5896C16.8576 21.6342 16.8488 21.6784 16.8317 21.7196C16.8146 21.7608 16.7896 21.7983 16.7581 21.8298L14.3831 24.2048C14.3356 24.2524 14.2751 24.2848 14.2092 24.2979C14.1433 24.3111 14.075 24.3043 14.0129 24.2786C13.9509 24.2529 13.8978 24.2093 13.8606 24.1534C13.8233 24.0975 13.8034 24.0318 13.8036 23.9646V19.2146C13.8036 19.1328 13.8333 19.0537 13.887 18.992L18.559 13.6137C18.5882 13.58 18.6238 13.5525 18.6637 13.5326C18.7035 13.5127 18.747 13.5008 18.7914 13.4977C18.8359 13.4946 18.8805 13.5003 18.9228 13.5144C18.965 13.5285 19.0041 13.5508 19.0377 13.5801C19.0714 13.6093 19.0989 13.6449 19.1188 13.6847C19.1387 13.7246 19.1506 13.768 19.1537 13.8125C19.1568 13.8569 19.1511 13.9016 19.137 13.9438C19.1229 13.9861 19.1005 14.0252 19.0713 14.0588L14.7312 19.0544L20.9842 20.4971L22.5286 9.68744L8.93821 17.7177L11.947 18.4118C12.0347 18.4321 12.1108 18.4864 12.1586 18.5627C12.2063 18.6391 12.2217 18.7312 12.2015 18.819C12.1812 18.9067 12.1269 18.9828 12.0506 19.0305C11.9742 19.0783 11.8821 19.0937 11.7943 19.0734L7.95903 18.1879C7.89307 18.1726 7.8332 18.1379 7.78713 18.0882C7.74106 18.0386 7.71091 17.9763 7.70054 17.9094C7.69018 17.8424 7.70008 17.7739 7.72898 17.7127C7.75787 17.6514 7.80443 17.6002 7.86267 17.5657L22.7912 8.74423C22.8462 8.71184 22.9092 8.69561 22.973 8.6974C23.0368 8.69919 23.0988 8.71894 23.1519 8.75436C23.2049 8.78979 23.2469 8.83947 23.273 8.89769C23.2992 8.95591 23.3083 9.02032 23.2995 9.08352L21.6031 20.9585C21.5965 21.005 21.5803 21.0497 21.5555 21.0896C21.5308 21.1295 21.498 21.1639 21.4593 21.1905C21.4206 21.2171 21.3767 21.2353 21.3306 21.2441C21.2844 21.2529 21.237 21.252 21.1912 21.2415L14.4821 19.693Z" fill="#F7DCBF"/>
</svg>
