<?xml version="1.0" encoding="UTF-8" standalone="no"?>
<svg
   id="Layer_1"
   data-name="Layer 1"
   viewBox="0 0 423.88 85.25"
   version="1.1"
   sodipodi:docname="space.svg"
   inkscape:version="1.1 (c68e22c387, 2021-05-23)"
   xmlns:inkscape="http://www.inkscape.org/namespaces/inkscape"
   xmlns:sodipodi="http://sodipodi.sourceforge.net/DTD/sodipodi-0.dtd"
   xmlns="http://www.w3.org/2000/svg"
   xmlns:svg="http://www.w3.org/2000/svg">
  <sodipodi:namedview
     id="namedview91"
     pagecolor="#ffffff"
     bordercolor="#666666"
     borderopacity="1.0"
     inkscape:pageshadow="2"
     inkscape:pageopacity="0.0"
     inkscape:pagecheckerboard="0"
     showgrid="false"
     inkscape:zoom="3.4231386"
     inkscape:cx="211.94"
     inkscape:cy="42.650917"
     inkscape:window-width="1920"
     inkscape:window-height="986"
     inkscape:window-x="-11"
     inkscape:window-y="-11"
     inkscape:window-maximized="1"
     inkscape:current-layer="Layer_1" />
  <defs
     id="defs4">
    <style
       id="style2">.cls-1,.cls-2{fill:#f7dcbf;}.cls-2{font-size:18px;font-family:Abolition-Regular, Abolition;}.cls-3{letter-spacing:-0.05em;}.cls-4{letter-spacing:-0.01em;}.cls-5{letter-spacing:-0.01em;}.cls-6{letter-spacing:-0.01em;}</style>
  </defs>
  <path
     class="cls-1"
     d="M91.6,74.85a.91.91,0,0,1-.7-.3,1.12,1.12,0,0,1-.1-1.6l20.7-23.6a8.26,8.26,0,0,1,12.4,0l19.2,23.4a1.14,1.14,0,0,1-1.8,1.4l-19.1-23.3a6.06,6.06,0,0,0-9,0L92.5,74.45A1,1,0,0,1,91.6,74.85Z"
     transform="translate(0 -13)"
     id="path6" />
  <path
     class="cls-1"
     d="M166.6,61.85c.3-.06-.6-.1-.9-.4l-14.3-17.1a3.64,3.64,0,0,0-5.4,0l-13.9,15.8a1.13,1.13,0,0,1-1.7-1.5l13.8-15.8a5.84,5.84,0,0,1,8.8,0l14.4,17.2c.4.5-.5.25-.9.65C165.17,61,165.67,62,166.6,61.85Z"
     transform="translate(0 -13)"
     id="path8" />
  <path
     class="cls-1"
     d="M54.67,42.2A10.78,10.78,0,1,1,65.45,31.42,10.8,10.8,0,0,1,54.67,42.2Zm0-19.61A8.87,8.87,0,1,0,63.5,31.5,8.83,8.83,0,0,0,54.67,22.59Z"
     transform="translate(0 -13)"
     id="path10" />
  <path
     class="cls-1"
     d="M54.67,18.6a.93.93,0,0,1-.93-.93V13.94a.93.93,0,1,1,1.86,0v3.73A.84.84,0,0,1,54.67,18.6Z"
     transform="translate(0 -13)"
     id="path12" />
  <path
     class="cls-1"
     d="M47.8,20.47A.93.93,0,0,1,47,20l-1.87-3.22a1,1,0,0,1,.34-1.28,1,1,0,0,1,1.27.34L48.56,19a1,1,0,0,1-.34,1.27A.6.6,0,0,1,47.8,20.47Z"
     transform="translate(0 -13)"
     id="path14" />
  <path
     class="cls-1"
     d="M42.7,25.48a.59.59,0,0,1-.5-.17L39,23.44a1,1,0,0,1-.34-1.27,1,1,0,0,1,1.27-.34l3.23,1.87A1,1,0,0,1,43.47,25,.75.75,0,0,1,42.7,25.48Z"
     transform="translate(0 -13)"
     id="path16" />
  <path
     class="cls-1"
     d="M40.84,32.44H37.19a.94.94,0,1,1,0-1.87h3.73a.94.94,0,0,1,.94.93A1,1,0,0,1,40.84,32.44Z"
     transform="translate(0 -13)"
     id="path18" />
  <path
     class="cls-1"
     d="M39.48,41.18a.93.93,0,0,1-.85-.51A1,1,0,0,1,39,39.4l3.23-1.87a1,1,0,0,1,1.27.34,1,1,0,0,1-.34,1.27L39.9,41C39.82,41.18,39.65,41.18,39.48,41.18Z"
     transform="translate(0 -13)"
     id="path20" />
  <path
     class="cls-1"
     d="M45.93,47.63a.62.62,0,0,1-.51-.17,1,1,0,0,1-.34-1.28L47,43a.93.93,0,0,1,1.61.93l-1.78,3.23A.93.93,0,0,1,45.93,47.63Z"
     transform="translate(0 -13)"
     id="path22" />
  <path
     class="cls-1"
     d="M54.67,50a.93.93,0,0,1-.93-.93V45.34a.93.93,0,1,1,1.86,0v3.73A.88.88,0,0,1,54.67,50Z"
     transform="translate(0 -13)"
     id="path24" />
  <path
     class="cls-1"
     d="M63.5,47.63a.93.93,0,0,1-.85-.51l-1.87-3.23A.93.93,0,0,1,62.39,43l1.87,3.22a1,1,0,0,1-.34,1.28A.65.65,0,0,1,63.5,47.63Z"
     transform="translate(0 -13)"
     id="path26" />
  <path
     class="cls-1"
     d="M70,41.18a.62.62,0,0,1-.51-.17l-3.23-1.87a1,1,0,0,1-.34-1.27,1,1,0,0,1,1.27-.34l3.23,1.87a1,1,0,0,1,.34,1.27A.91.91,0,0,1,70,41.18Z"
     transform="translate(0 -13)"
     id="path28" />
  <path
     class="cls-1"
     d="M72.24,32.44H68.5a.94.94,0,0,1,0-1.87h3.74a.93.93,0,0,1,.93.93A.89.89,0,0,1,72.24,32.44Z"
     transform="translate(0 -13)"
     id="path30" />
  <path
     class="cls-1"
     d="M66.72,25.48a.93.93,0,0,1-.85-.51,1,1,0,0,1,.34-1.27l3.23-1.87a1,1,0,0,1,1.27.34,1,1,0,0,1-.34,1.27l-3.23,1.87A.52.52,0,0,1,66.72,25.48Z"
     transform="translate(0 -13)"
     id="path32" />
  <path
     class="cls-1"
     d="M61.63,20.47a.62.62,0,0,1-.51-.17A1,1,0,0,1,60.78,19l1.87-3.23a1,1,0,0,1,1.27-.34,1,1,0,0,1,.34,1.28L62.48,20A.93.93,0,0,1,61.63,20.47Z"
     transform="translate(0 -13)"
     id="path34" />
  <path
     class="cls-1"
     d="M155.8,92.45H136.5A43,43,0,0,1,111.9,85a73.85,73.85,0,0,0-42.7-12.8A1.1,1.1,0,0,1,69,70c.9-.1,23-1.4,44.2,13.2a41.07,41.07,0,0,0,23.3,7.1h19.3a1.1,1.1,0,1,1,0,2.2Z"
     transform="translate(0 -13)"
     id="path36" />
  <path
     class="cls-1"
     d="M117.2,87.85a1.22,1.22,0,0,1-.9-.4,1.12,1.12,0,0,1,.1-1.6c.2-.2,20-17,50.1-17a1.1,1.1,0,0,1,0,2.2c-29.3,0-48.5,16.3-48.7,16.5S117.4,87.85,117.2,87.85Z"
     transform="translate(0 -13)"
     id="path38" />
  <path
     class="cls-1"
     d="M108.1,98.25a1.85,1.85,0,0,1-.7-.2C85.7,80.85,69.2,83.25,69,83.25a1.12,1.12,0,0,1-.4-2.2c.7-.1,17.7-2.6,40.1,15.1a1.13,1.13,0,0,1,.2,1.6A1,1,0,0,1,108.1,98.25Z"
     transform="translate(0 -13)"
     id="path40" />
  <path
     class="cls-1"
     d="M136.5,92.45a.91.91,0,0,1-.7-.3,1.12,1.12,0,0,1-.1-1.6c.4-.4,8.9-10.3,30.9-10.6h0a1.1,1.1,0,1,1,0,2.2c-21,.2-29.1,9.7-29.2,9.8A1.06,1.06,0,0,1,136.5,92.45Z"
     transform="translate(0 -13)"
     id="path42" />
  <path
     class="cls-1"
     d="M158,70.85a.91.91,0,0,1-.7-.3,1.12,1.12,0,0,1-.1-1.6l20.7-23.6a8.26,8.26,0,0,1,12.4,0l19.2,23.4a1.14,1.14,0,0,1-1.8,1.4l-19.1-23.3a6.06,6.06,0,0,0-9,0l-20.7,23.6A1,1,0,0,1,158,70.85Z"
     transform="translate(0 -13)"
     id="path44" />
  <path
     class="cls-1"
     d="M0,90.25H4a41.07,41.07,0,0,0,23.3-7.1c21.2-14.6,43.3-13.3,44.2-13.2a1.1,1.1,0,0,1-.2,2.2A73.85,73.85,0,0,0,28.61,85,43,43,0,0,1,4,92.45H0"
     transform="translate(0 -13)"
     id="path46" />
  <path
     class="cls-1"
     d="M217.4,87.55C217.2,87.35,196,71,166.72,71c-.6,0,.88-.48.88-1.08s-1.7-1.1-1.1-1.1c30.1,0,52.1,16.8,52.3,17a1.12,1.12,0,0,1,.1,1.6,1.22,1.22,0,0,1-.9.4C217.8,87.85,217.5,87.85,217.4,87.55Z"
     transform="translate(0 -13)"
     id="path48" />
  <path
     class="cls-1"
     d="M186.93,72A1.12,1.12,0,0,0,188,73.1h19.3a40.4,40.4,0,0,1,23.3,7.27c21.2,14.95,43.3,13.62,44.2,13.52a1.14,1.14,0,0,0,1-1.23,1.13,1.13,0,0,0-1.2-1,72.49,72.49,0,0,1-42.7-13.1,42.32,42.32,0,0,0-24.6-7.68L184.58,71C184,71,186.93,71.36,186.93,72Z"
     transform="translate(0 -13)"
     id="path50" />
  <path
     class="cls-1"
     d="M220.64,45h-6.55A5.12,5.12,0,0,1,221.43,41l.83.41.19-.91a7.31,7.31,0,0,1,14.44,2.17l-.17,1.49,1.26-.81A4,4,0,0,1,243.85,45H228.76v1.42h18V45h-1.36a5.44,5.44,0,0,0-7-3.48,8.74,8.74,0,0,0-17.07-2.2A6.55,6.55,0,0,0,212.66,45h-1.83v1.42h9.81Z"
     transform="translate(0 -13)"
     id="path52" />
  <rect
     class="cls-1"
     x="222.02"
     y="32.03"
     width="4.97"
     height="1.42"
     id="rect54" />
  <path
     class="cls-1"
     d="M315.28,93.35h-4.12V89.7l3.26-1.49v-1.4h.83v-.64h-.83v-.89h.83v-.64h-.83v-.53s0-.1,0-.15l.7-.7-.46-.46-.52.53-.06-.06a1,1,0,0,0-.53-.31v-.88h-.65V83a1.09,1.09,0,0,0-.53.33l-.53-.54-.46.46.69.69a.65.65,0,0,0,0,.2v2.56l-.89.41v-5h1v-.65h-1v-.14a1.15,1.15,0,0,0-.06-.37l.75-.75-.46-.45-.64.64a1.36,1.36,0,0,0-.61-.31v-1h-.65v1a1.36,1.36,0,0,0-.61.31l-.64-.64-.46.46.75.74a1.15,1.15,0,0,0-.06.37v.14h-.93v.65h.93v7.13l-.88-.4V86.25a1.23,1.23,0,0,0,0-.2l.68-.69-.46-.46-.53.53a1.15,1.15,0,0,0-.53-.32v-.89h-.65v.88a1.13,1.13,0,0,0-.53.3l-.05.07-.53-.53-.46.46.7.7c0,.05,0,.1,0,.15v.52h-.83v.65h.83v.88h-.83V89h.83v1.4l3.27,1.49v1.51H293.19V87l3.59-1.64V83.8h.94v-.65h-.94v-1h.94v-.65h-.94v-.61a1,1,0,0,0,0-.17l.78-.78-.46-.46-.6.6L296.4,80a1.16,1.16,0,0,0-.59-.33v-1h-.65v1a1.22,1.22,0,0,0-.61.38l-.61-.61-.46.46.76.76a1.79,1.79,0,0,0,0,.23V83.7l-1,.47V78.6h1.08V78h-1.08v-.09a1.28,1.28,0,0,0-.09-.48l.86-.86-.46-.45-.76.75a1.29,1.29,0,0,0-.67-.36V75.35h-.65v1.11a1.36,1.36,0,0,0-.68.36l-.75-.75-.45.46.84.85a1.51,1.51,0,0,0-.09.48V78h-1.05v.65h1.05v7.91l-1-.47V83.21a.85.85,0,0,0,0-.23l.77-.77-.46-.45-.61.6a1.29,1.29,0,0,0-.61-.38V81h-.65v1a1.33,1.33,0,0,0-.59.33l-.08.1-.6-.6-.46.46.78.78a.88.88,0,0,0,0,.17v.61h-.94v.65h.94v1h-.94v.64h.94v1.55l3.58,1.63v4h-4.9V94h29.89Zm-2.6-6.26v-3a.55.55,0,0,1,.55-.55.57.57,0,0,1,.39.16.55.55,0,0,1,.16.39v3.68L311.16,89v-1.2Zm-3-6.42h.17a.62.62,0,0,1,.62.62V93.24H309.1V81.29A.62.62,0,0,1,309.72,80.67Zm-3.88,9.26V86.25a.51.51,0,0,1,.16-.39.54.54,0,0,1,.93.39v3l1.53.7v1.2Zm-11-5.82V80.86a.63.63,0,0,1,.63-.63.64.64,0,0,1,.45.19.63.63,0,0,1,.18.44v4.07l-2.94,1.34V84.88Zm-7.51,3.16V83.21a.6.6,0,0,1,.19-.45.59.59,0,0,1,.44-.18.63.63,0,0,1,.63.63v3.25l1.67.76v1.39Zm3.58-9.41a.8.8,0,0,1,1.6,0V93.35h-1.6Z"
     transform="translate(0 -13)"
     id="path56" />
  <polygon
     class="cls-1"
     points="263.13 36.76 264.6 35.28 265.56 36.25 266.57 35.25 264.6 33.27 263.13 34.74 261.66 33.27 259.68 35.25 260.69 36.25 261.65 35.28 263.13 36.76"
     id="polygon58" />
  <polygon
     class="cls-1"
     points="269.44 26.95 267.17 29.22 268.18 30.22 269.44 28.96 271.2 30.73 272.97 28.96 274.24 30.22 275.24 29.22 272.97 26.95 271.21 28.71 269.44 26.95"
     id="polygon60" />
  <polygon
     class="cls-1"
     points="264.07 21.31 261.94 23.44 259.82 21.31 257.19 23.94 258.19 24.95 259.82 23.32 261.94 25.45 264.07 23.32 265.69 24.95 266.7 23.94 264.07 21.31"
     id="polygon62" />
  <path
     class="cls-1"
     d="M186.55,35.62H180a5.12,5.12,0,0,1,7.35-4.07l.82.41.19-.9a7.31,7.31,0,0,1,14.44,2.16l-.17,1.49,1.26-.81a4,4,0,0,1,5.87,1.72H194.67V37h18V35.62h-1.36a5.44,5.44,0,0,0-7-3.48,8.74,8.74,0,0,0-17.08-2.2,6.54,6.54,0,0,0-8.6,5.68h-1.84V37h9.81Z"
     transform="translate(0 -13)"
     id="path64" />
  <rect
     class="cls-1"
     x="187.93"
     y="22.62"
     width="4.97"
     height="1.42"
     id="rect66" />
  <path
     class="cls-1"
     d="M400,84.64c-79.8,13.17-120.44,7-122.47,7-2.32,0-2.27.63-2.27,1.19s-.35,1.12,2,1.12c3.48.09,40.73,6.61,122.77-6.85"
     transform="translate(0 -13)"
     id="path68" />
  <text
     class="cls-2"
     id="text88"
     x="412.28198"
     y="53.799999"
     style="text-align:end;text-anchor:end"><tspan
       style="font-style:normal;font-variant:normal;font-weight:normal;font-stretch:normal;font-family:'Times New Roman';-inkscape-font-specification:'Times New Roman, ';text-align:end;text-anchor:end"
       id="tspan2635">Created by: JGA</tspan></text>
</svg>
